COMMENT vga
STARTFONT 2.1
COMMENT This font was automatically resized by bdfresize-1.5
COMMENT   mag_x = 2/1, mag_y = 2/1, blackness = 1
FONT vga
SIZE 28 75 75
FONTBOUNDINGBOX 16 28 0 -8
STARTPROPERTIES 4
FONT_DESCENT 8
FONT_ASCENT 20
AVERAGE_WIDTH 160
DEFAULT_CHAR 0
ENDPROPERTIES
CHARS 324
STARTCHAR u0020
ENCODING 32
SWIDTH 1332 0
DWIDTH 16 0
BBX 16 28 0 -8
BITMAP
0000
0000
0000
0000
0000
0000
0000
0000
0000
0000
0000
0000
0000
0000
0000
0000
0000
0000
0000
0000
0000
0000
0000
0000
0000
0000
0000
0000
ENDCHAR
STARTCHAR u005A
ENCODING 90
SWIDTH 1332 0
DWIDTH 16 0
BBX 16 28 0 -8
BITMAP
0000
0000
0000
0000
FFFC
FFFC
F03C
F03C
C03C
C03C
00F0
00F0
03C0
03C0
0F00
0F00
3C00
3C00
F00C
F00C
F03C
F03C
FFFC
FFFC
0000
0000
0000
0000
ENDCHAR
STARTCHAR u00CE
ENCODING 206
SWIDTH 1332 0
DWIDTH 16 0
BBX 16 28 0 -8
BITMAP
0FF0
0FF0
3C3C
3C3C
0000
0000
0FF0
0FF0
03C0
03C0
03C0
03C0
03C0
03C0
03C0
03C0
03C0
03C0
03C0
03C0
03C0
03C0
0FF0
0FF0
0000
0000
0000
0000
ENDCHAR
STARTCHAR u0076
ENCODING 118
SWIDTH 1332 0
DWIDTH 16 0
BBX 16 28 0 -8
BITMAP
0000
0000
0000
0000
0000
0000
0000
0000
0000
0000
3C3C
3C3C
3C3C
3C3C
3C3C
3C3C
3C3C
3C3C
3C3C
3C3C
0FF0
0FF0
03C0
03C0
0000
0000
0000
0000
ENDCHAR
STARTCHAR u0047
ENCODING 71
SWIDTH 1332 0
DWIDTH 16 0
BBX 16 28 0 -8
BITMAP
0000
0000
0000
0000
0FF0
0FF0
3C3C
3C3C
F00C
F00C
F000
F000
F000
F000
F3FC
F3FC
F03C
F03C
F03C
F03C
3C3C
3C3C
0FCC
0FCC
0000
0000
0000
0000
ENDCHAR
STARTCHAR u0066
ENCODING 102
SWIDTH 1332 0
DWIDTH 16 0
BBX 16 28 0 -8
BITMAP
0000
0000
0000
0000
03F0
03F0
0F3C
0F3C
0F0C
0F0C
0F00
0F00
3FC0
3FC0
0F00
0F00
0F00
0F00
0F00
0F00
0F00
0F00
3FC0
3FC0
0000
0000
0000
0000
ENDCHAR
STARTCHAR u014B
ENCODING 331
SWIDTH 1332 0
DWIDTH 16 0
BBX 16 28 0 -8
BITMAP
0000
0000
0000
0000
0000
0000
0000
0000
F3F0
F3F0
FFFC
FFFC
FF3C
FF3C
FC3C
FC3C
F03C
F03C
F03C
F03C
003C
003C
03F0
03F0
0000
0000
0000
0000
ENDCHAR
STARTCHAR u0166
ENCODING 358
SWIDTH 1332 0
DWIDTH 16 0
BBX 16 28 0 -8
BITMAP
0000
0000
0000
0000
3FFC
3FFC
3FFC
3FFC
33CC
33CC
03C0
03C0
03FC
03FC
0FF0
0FF0
3FC0
3FC0
03C0
03C0
03C0
03C0
0FF0
0FF0
0000
0000
0000
0000
ENDCHAR
STARTCHAR u0037
ENCODING 55
SWIDTH 1332 0
DWIDTH 16 0
BBX 16 28 0 -8
BITMAP
0000
0000
0000
0000
FFFC
FFFC
F03C
F03C
003C
003C
003C
003C
00F0
00F0
03C0
03C0
0F00
0F00
0F00
0F00
0F00
0F00
0F00
0F00
0000
0000
0000
0000
ENDCHAR
STARTCHAR u0054
ENCODING 84
SWIDTH 1332 0
DWIDTH 16 0
BBX 16 28 0 -8
BITMAP
0000
0000
0000
0000
3FFC
3FFC
3FFC
3FFC
33CC
33CC
03C0
03C0
03C0
03C0
03C0
03C0
03C0
03C0
03C0
03C0
03C0
03C0
0FF0
0FF0
0000
0000
0000
0000
ENDCHAR
STARTCHAR u00E9
ENCODING 233
SWIDTH 1332 0
DWIDTH 16 0
BBX 16 28 0 -8
BITMAP
0000
0000
00F0
00F0
03C0
03C0
0F00
0F00
0000
0000
3FF0
3FF0
F03C
F03C
FFFC
FFFC
F000
F000
F000
F000
F03C
F03C
3FF0
3FF0
0000
0000
0000
0000
ENDCHAR
STARTCHAR u0103
ENCODING 259
SWIDTH 1332 0
DWIDTH 16 0
BBX 16 28 0 -8
BITMAP
0000
0000
0000
0000
F0F0
F0F0
3FC0
3FC0
0000
0000
3FC0
3FC0
00F0
00F0
3FF0
3FF0
F0F0
F0F0
F0F0
F0F0
F0F0
F0F0
3F3C
3F3C
0000
0000
0000
0000
ENDCHAR
STARTCHAR u00C2
ENCODING 194
SWIDTH 1332 0
DWIDTH 16 0
BBX 16 28 0 -8
BITMAP
0FC0
0FC0
3CF0
3CF0
0000
0000
0300
0300
0FC0
0FC0
3CF0
3CF0
F03C
F03C
F03C
F03C
FFFC
FFFC
F03C
F03C
F03C
F03C
F03C
F03C
0000
0000
0000
0000
ENDCHAR
STARTCHAR u0039
ENCODING 57
SWIDTH 1332 0
DWIDTH 16 0
BBX 16 28 0 -8
BITMAP
0000
0000
0000
0000
3FF0
3FF0
F03C
F03C
F03C
F03C
F03C
F03C
3FFC
3FFC
003C
003C
003C
003C
003C
003C
00F0
00F0
3FC0
3FC0
0000
0000
0000
0000
ENDCHAR
STARTCHAR u0170
ENCODING 368
SWIDTH 1332 0
DWIDTH 16 0
BBX 16 28 0 -8
BITMAP
0F3C
0F3C
3CF0
3CF0
0000
0000
F03C
F03C
F03C
F03C
F03C
F03C
F03C
F03C
F03C
F03C
F03C
F03C
F03C
F03C
F03C
F03C
3FF0
3FF0
0000
0000
0000
0000
ENDCHAR
STARTCHAR u00DC
ENCODING 220
SWIDTH 1332 0
DWIDTH 16 0
BBX 16 28 0 -8
BITMAP
0000
0000
F03C
F03C
0000
0000
F03C
F03C
F03C
F03C
F03C
F03C
F03C
F03C
F03C
F03C
F03C
F03C
F03C
F03C
F03C
F03C
3FF0
3FF0
0000
0000
0000
0000
ENDCHAR
STARTCHAR u013C
ENCODING 316
SWIDTH 1332 0
DWIDTH 16 0
BBX 16 28 0 -8
BITMAP
0000
0000
0000
0000
0FC0
0FC0
03C0
03C0
03C0
03C0
03C0
03C0
03C0
03C0
03C0
03C0
03C0
03C0
03C0
03C0
03C0
03C0
0FF0
0FF0
03C0
03C0
3F00
3F00
ENDCHAR
STARTCHAR u00A3
ENCODING 163
SWIDTH 1332 0
DWIDTH 16 0
BBX 16 28 0 -8
BITMAP
0000
0000
0FC0
0FC0
3CF0
3CF0
3C30
3C30
3C00
3C00
FF00
FF00
3C00
3C00
3C00
3C00
3C00
3C00
3C00
3C00
FC3C
FC3C
FFF0
FFF0
0000
0000
0000
0000
ENDCHAR
STARTCHAR u2190
ENCODING 8592
SWIDTH 1332 0
DWIDTH 16 0
BBX 16 28 0 -8
BITMAP
0000
0000
0000
0000
0000
0000
0000
0000
0000
0000
0F00
0F00
3C00
3C00
FFFC
FFFC
3C00
3C00
0F00
0F00
0000
0000
0000
0000
0000
0000
0000
0000
ENDCHAR
STARTCHAR u0059
ENCODING 89
SWIDTH 1332 0
DWIDTH 16 0
BBX 16 28 0 -8
BITMAP
0000
0000
0000
0000
3C3C
3C3C
3C3C
3C3C
3C3C
3C3C
3C3C
3C3C
0FF0
0FF0
03C0
03C0
03C0
03C0
03C0
03C0
03C0
03C0
0FF0
0FF0
0000
0000
0000
0000
ENDCHAR
STARTCHAR u00AF
ENCODING 175
SWIDTH 1332 0
DWIDTH 16 0
BBX 16 28 0 -8
BITMAP
3FF0
3FF0
0000
0000
0000
0000
0000
0000
0000
0000
0000
0000
0000
0000
0000
0000
0000
0000
0000
0000
0000
0000
0000
0000
0000
0000
0000
0000
ENDCHAR
STARTCHAR u0023
ENCODING 35
SWIDTH 1332 0
DWIDTH 16 0
BBX 16 28 0 -8
BITMAP
0000
0000
0000
0000
0000
0000
3CF0
3CF0
3CF0
3CF0
FFFC
FFFC
3CF0
3CF0
3CF0
3CF0
3CF0
3CF0
FFFC
FFFC
3CF0
3CF0
3CF0
3CF0
0000
0000
0000
0000
ENDCHAR
STARTCHAR u00D0
ENCODING 208
SWIDTH 1332 0
DWIDTH 16 0
BBX 16 28 0 -8
BITMAP
0000
0000
0000
0000
FFC0
FFC0
3CF0
3CF0
3C3C
3C3C
3C3C
3C3C
FF3C
FF3C
FF3C
FF3C
3C3C
3C3C
3C3C
3C3C
3CF0
3CF0
FFC0
FFC0
0000
0000
0000
0000
ENDCHAR
STARTCHAR u015B
ENCODING 347
SWIDTH 1332 0
DWIDTH 16 0
BBX 16 28 0 -8
BITMAP
0000
0000
0000
0000
00F0
00F0
03C0
03C0
0000
0000
3FF0
3FF0
F03C
F03C
3C00
3C00
0FC0
0FC0
00F0
00F0
F03C
F03C
3FF0
3FF0
0000
0000
0000
0000
ENDCHAR
STARTCHAR u2665
ENCODING 9829
SWIDTH 1332 0
DWIDTH 16 0
BBX 16 28 0 -8
BITMAP
0000
0000
0000
0000
0000
0000
0000
0000
3CF0
3CF0
FFFC
FFFC
FFFC
FFFC
FFFC
FFFC
FFFC
FFFC
3FF0
3FF0
0FC0
0FC0
0300
0300
0000
0000
0000
0000
ENDCHAR
STARTCHAR u02D8
ENCODING 728
SWIDTH 1332 0
DWIDTH 16 0
BBX 16 28 0 -8
BITMAP
0000
0000
F03C
F03C
3FF0
3FF0
0000
0000
0000
0000
0000
0000
0000
0000
0000
0000
0000
0000
0000
0000
0000
0000
0000
0000
0000
0000
0000
0000
ENDCHAR
STARTCHAR u005D
ENCODING 93
SWIDTH 1332 0
DWIDTH 16 0
BBX 16 28 0 -8
BITMAP
0000
0000
0000
0000
0FF0
0FF0
00F0
00F0
00F0
00F0
00F0
00F0
00F0
00F0
00F0
00F0
00F0
00F0
00F0
00F0
00F0
00F0
0FF0
0FF0
0000
0000
0000
0000
ENDCHAR
STARTCHAR u0124
ENCODING 292
SWIDTH 1332 0
DWIDTH 16 0
BBX 16 28 0 -8
BITMAP
0FC0
0FC0
3CF0
3CF0
0000
0000
F03C
F03C
F03C
F03C
F03C
F03C
FFFC
FFFC
F03C
F03C
F03C
F03C
F03C
F03C
F03C
F03C
F03C
F03C
0000
0000
0000
0000
ENDCHAR
STARTCHAR u0145
ENCODING 325
SWIDTH 1332 0
DWIDTH 16 0
BBX 16 28 0 -8
BITMAP
0000
0000
0000
0000
0000
0000
F03C
F03C
FC3C
FC3C
FF3C
FF3C
FFFC
FFFC
F3FC
F3FC
F0FC
F0FC
F03C
F03C
F03C
F03C
F03C
F03C
03C0
03C0
3F00
3F00
ENDCHAR
STARTCHAR u017A
ENCODING 378
SWIDTH 1332 0
DWIDTH 16 0
BBX 16 28 0 -8
BITMAP
0000
0000
0000
0000
03C0
03C0
0F00
0F00
0000
0000
FFFC
FFFC
F0F0
F0F0
03C0
03C0
0F00
0F00
3C00
3C00
F03C
F03C
FFFC
FFFC
0000
0000
0000
0000
ENDCHAR
STARTCHAR u015E
ENCODING 350
SWIDTH 1332 0
DWIDTH 16 0
BBX 16 28 0 -8
BITMAP
0000
0000
0000
0000
3FF0
3FF0
F03C
F03C
F03C
F03C
3C00
3C00
0FC0
0FC0
00F0
00F0
003C
003C
F03C
F03C
F03C
F03C
3FF0
3FF0
03C0
03C0
3F00
3F00
ENDCHAR
STARTCHAR u266A
ENCODING 9834
SWIDTH 1332 0
DWIDTH 16 0
BBX 16 28 0 -8
BITMAP
0000
0000
0000
0000
0FFC
0FFC
0F3C
0F3C
0FFC
0FFC
0F00
0F00
0F00
0F00
0F00
0F00
0F00
0F00
3F00
3F00
FF00
FF00
FC00
FC00
0000
0000
0000
0000
ENDCHAR
STARTCHAR u0123
ENCODING 291
SWIDTH 1332 0
DWIDTH 16 0
BBX 16 28 0 -8
BITMAP
0000
0000
0FF0
0FF0
3C00
3C00
0FC0
0FC0
0000
0000
3F3C
3F3C
F0F0
F0F0
F0F0
F0F0
F0F0
F0F0
F0F0
F0F0
3FF0
3FF0
00F0
00F0
F0F0
F0F0
3FC0
3FC0
ENDCHAR
STARTCHAR u00C7
ENCODING 199
SWIDTH 1332 0
DWIDTH 16 0
BBX 16 28 0 -8
BITMAP
0000
0000
0000
0000
0FF0
0FF0
3C3C
3C3C
F00C
F00C
F000
F000
F000
F000
F000
F000
F00C
F00C
3C3C
3C3C
0FF0
0FF0
00F0
00F0
003C
003C
3FF0
3FF0
ENDCHAR
STARTCHAR u0072
ENCODING 114
SWIDTH 1332 0
DWIDTH 16 0
BBX 16 28 0 -8
BITMAP
0000
0000
0000
0000
0000
0000
0000
0000
0000
0000
F3F0
F3F0
3F3C
3F3C
3C3C
3C3C
3C00
3C00
3C00
3C00
3C00
3C00
FF00
FF00
0000
0000
0000
0000
ENDCHAR
STARTCHAR u00E2
ENCODING 226
SWIDTH 1332 0
DWIDTH 16 0
BBX 16 28 0 -8
BITMAP
0000
0000
0300
0300
0FC0
0FC0
3CF0
3CF0
0000
0000
3FC0
3FC0
00F0
00F0
3FF0
3FF0
F0F0
F0F0
F0F0
F0F0
F0F0
F0F0
3F3C
3F3C
0000
0000
0000
0000
ENDCHAR
STARTCHAR u003A
ENCODING 58
SWIDTH 1332 0
DWIDTH 16 0
BBX 16 28 0 -8
BITMAP
0000
0000
0000
0000
0000
0000
0000
0000
03C0
03C0
03C0
03C0
0000
0000
0000
0000
0000
0000
03C0
03C0
03C0
03C0
0000
0000
0000
0000
0000
0000
ENDCHAR
STARTCHAR u00D3
ENCODING 211
SWIDTH 1332 0
DWIDTH 16 0
BBX 16 28 0 -8
BITMAP
03C0
03C0
0F00
0F00
0000
0000
3FF0
3FF0
F03C
F03C
F03C
F03C
F03C
F03C
F03C
F03C
F03C
F03C
F03C
F03C
F03C
F03C
3FF0
3FF0
0000
0000
0000
0000
ENDCHAR
STARTCHAR u2195
ENCODING 8597
SWIDTH 1332 0
DWIDTH 16 0
BBX 16 28 0 -8
BITMAP
0000
0000
0000
0000
03C0
03C0
0FF0
0FF0
3FFC
3FFC
03C0
03C0
03C0
03C0
03C0
03C0
3FFC
3FFC
0FF0
0FF0
03C0
03C0
0000
0000
0000
0000
0000
0000
ENDCHAR
STARTCHAR u0151
ENCODING 337
SWIDTH 1332 0
DWIDTH 16 0
BBX 16 28 0 -8
BITMAP
0000
0000
0000
0000
0F3C
0F3C
3CF0
3CF0
0000
0000
3FF0
3FF0
F03C
F03C
F03C
F03C
F03C
F03C
F03C
F03C
F03C
F03C
3FF0
3FF0
0000
0000
0000
0000
ENDCHAR
STARTCHAR u017E
ENCODING 382
SWIDTH 1332 0
DWIDTH 16 0
BBX 16 28 0 -8
BITMAP
0000
0000
0000
0000
3CF0
3CF0
0FC0
0FC0
0000
0000
FFFC
FFFC
F0F0
F0F0
03C0
03C0
0F00
0F00
3C00
3C00
F03C
F03C
FFFC
FFFC
0000
0000
0000
0000
ENDCHAR
STARTCHAR u0065
ENCODING 101
SWIDTH 1332 0
DWIDTH 16 0
BBX 16 28 0 -8
BITMAP
0000
0000
0000
0000
0000
0000
0000
0000
0000
0000
3FF0
3FF0
F03C
F03C
FFFC
FFFC
F000
F000
F000
F000
F03C
F03C
3FF0
3FF0
0000
0000
0000
0000
ENDCHAR
STARTCHAR u0049
ENCODING 73
SWIDTH 1332 0
DWIDTH 16 0
BBX 16 28 0 -8
BITMAP
0000
0000
0000
0000
0FF0
0FF0
03C0
03C0
03C0
03C0
03C0
03C0
03C0
03C0
03C0
03C0
03C0
03C0
03C0
03C0
03C0
03C0
0FF0
0FF0
0000
0000
0000
0000
ENDCHAR
STARTCHAR u0154
ENCODING 340
SWIDTH 1332 0
DWIDTH 16 0
BBX 16 28 0 -8
BITMAP
00F0
00F0
03C0
03C0
0000
0000
FFF0
FFF0
3C3C
3C3C
3C3C
3C3C
3C3C
3C3C
3FF0
3FF0
3CF0
3CF0
3C3C
3C3C
3C3C
3C3C
FC3C
FC3C
0000
0000
0000
0000
ENDCHAR
STARTCHAR u004C
ENCODING 76
SWIDTH 1332 0
DWIDTH 16 0
BBX 16 28 0 -8
BITMAP
0000
0000
0000
0000
FF00
FF00
3C00
3C00
3C00
3C00
3C00
3C00
3C00
3C00
3C00
3C00
3C00
3C00
3C0C
3C0C
3C3C
3C3C
FFFC
FFFC
0000
0000
0000
0000
ENDCHAR
STARTCHAR u0137
ENCODING 311
SWIDTH 1332 0
DWIDTH 16 0
BBX 16 28 0 -8
BITMAP
0000
0000
0000
0000
FC00
FC00
3C00
3C00
3C00
3C00
3C3C
3C3C
3CF0
3CF0
3FC0
3FC0
3FC0
3FC0
3CF0
3CF0
3C3C
3C3C
FC3C
FC3C
03C0
03C0
3F00
3F00
ENDCHAR
STARTCHAR u003E
ENCODING 62
SWIDTH 1332 0
DWIDTH 16 0
BBX 16 28 0 -8
BITMAP
0000
0000
0000
0000
0000
0000
3C00
3C00
0F00
0F00
03C0
03C0
00F0
00F0
003C
003C
00F0
00F0
03C0
03C0
0F00
0F00
3C00
3C00
0000
0000
0000
0000
ENDCHAR
STARTCHAR u0043
ENCODING 67
SWIDTH 1332 0
DWIDTH 16 0
BBX 16 28 0 -8
BITMAP
0000
0000
0000
0000
0FF0
0FF0
3C3C
3C3C
F00C
F00C
F000
F000
F000
F000
F000
F000
F000
F000
F00C
F00C
3C3C
3C3C
0FF0
0FF0
0000
0000
0000
0000
ENDCHAR
STARTCHAR u00F1
ENCODING 241
SWIDTH 1332 0
DWIDTH 16 0
BBX 16 28 0 -8
BITMAP
0000
0000
0000
0000
3F3C
3F3C
F3F0
F3F0
0000
0000
F3F0
F3F0
3C3C
3C3C
3C3C
3C3C
3C3C
3C3C
3C3C
3C3C
3C3C
3C3C
3C3C
3C3C
0000
0000
0000
0000
ENDCHAR
STARTCHAR u00C6
ENCODING 198
SWIDTH 1332 0
DWIDTH 16 0
BBX 16 28 0 -8
BITMAP
0000
0000
0000
0000
0FFC
0FFC
3CF0
3CF0
F0F0
F0F0
F0F0
F0F0
FFFC
FFFC
F0F0
F0F0
F0F0
F0F0
F0F0
F0F0
F0F0
F0F0
F0FC
F0FC
0000
0000
0000
0000
ENDCHAR
STARTCHAR u0147
ENCODING 327
SWIDTH 1332 0
DWIDTH 16 0
BBX 16 28 0 -8
BITMAP
3CF0
3CF0
0FC0
0FC0
0000
0000
F03C
F03C
FC3C
FC3C
FF3C
FF3C
FFFC
FFFC
F3FC
F3FC
F0FC
F0FC
F03C
F03C
F03C
F03C
F03C
F03C
0000
0000
0000
0000
ENDCHAR
STARTCHAR u0118
ENCODING 280
SWIDTH 1332 0
DWIDTH 16 0
BBX 16 28 0 -8
BITMAP
0000
0000
0000
0000
FFFC
FFFC
3C3C
3C3C
3C0C
3C0C
3CC0
3CC0
3FC0
3FC0
3CC0
3CC0
3C0C
3C0C
3C0C
3C0C
3C3C
3C3C
FFFC
FFFC
03C0
03C0
03F0
03F0
ENDCHAR
STARTCHAR u0111
ENCODING 273
SWIDTH 1332 0
DWIDTH 16 0
BBX 16 28 0 -8
BITMAP
0000
0000
0000
0000
00F0
00F0
3FFC
3FFC
3FFC
3FFC
00F0
00F0
0FF0
0FF0
3CF0
3CF0
F0F0
F0F0
F0F0
F0F0
F0F0
F0F0
3F3C
3F3C
0000
0000
0000
0000
ENDCHAR
STARTCHAR u00EC
ENCODING 236
SWIDTH 1332 0
DWIDTH 16 0
BBX 16 28 0 -8
BITMAP
0000
0000
0F00
0F00
03C0
03C0
00F0
00F0
0000
0000
0FC0
0FC0
03C0
03C0
03C0
03C0
03C0
03C0
03C0
03C0
03C0
03C0
0FF0
0FF0
0000
0000
0000
0000
ENDCHAR
STARTCHAR u0169
ENCODING 361
SWIDTH 1332 0
DWIDTH 16 0
BBX 16 28 0 -8
BITMAP
0000
0000
0000
0000
3F3C
3F3C
F3F0
F3F0
0000
0000
F0F0
F0F0
F0F0
F0F0
F0F0
F0F0
F0F0
F0F0
F0F0
F0F0
F0F0
F0F0
3F3C
3F3C
0000
0000
0000
0000
ENDCHAR
STARTCHAR u00F9
ENCODING 249
SWIDTH 1332 0
DWIDTH 16 0
BBX 16 28 0 -8
BITMAP
0000
0000
3C00
3C00
0F00
0F00
03C0
03C0
0000
0000
F0F0
F0F0
F0F0
F0F0
F0F0
F0F0
F0F0
F0F0
F0F0
F0F0
F0F0
F0F0
3F3C
3F3C
0000
0000
0000
0000
ENDCHAR
STARTCHAR u00CA
ENCODING 202
SWIDTH 1332 0
DWIDTH 16 0
BBX 16 28 0 -8
BITMAP
0300
0300
0FC0
0FC0
3CF0
3CF0
0000
0000
FFFC
FFFC
3C3C
3C3C
3C0C
3C0C
3FC0
3FC0
3C00
3C00
3C00
3C00
3C3C
3C3C
FFFC
FFFC
0000
0000
0000
0000
ENDCHAR
STARTCHAR u00DA
ENCODING 218
SWIDTH 1332 0
DWIDTH 16 0
BBX 16 28 0 -8
BITMAP
03C0
03C0
0F00
0F00
0000
0000
F03C
F03C
F03C
F03C
F03C
F03C
F03C
F03C
F03C
F03C
F03C
F03C
F03C
F03C
F03C
F03C
3FF0
3FF0
0000
0000
0000
0000
ENDCHAR
STARTCHAR u00A8
ENCODING 168
SWIDTH 1332 0
DWIDTH 16 0
BBX 16 28 0 -8
BITMAP
0000
0000
3CF0
3CF0
3CF0
3CF0
0000
0000
0000
0000
0000
0000
0000
0000
0000
0000
0000
0000
0000
0000
0000
0000
0000
0000
0000
0000
0000
0000
ENDCHAR
STARTCHAR u00B8
ENCODING 184
SWIDTH 1332 0
DWIDTH 16 0
BBX 16 28 0 -8
BITMAP
0000
0000
0000
0000
0000
0000
0000
0000
0000
0000
0000
0000
0000
0000
0000
0000
0000
0000
0000
0000
0000
0000
03C0
03C0
03C0
03C0
3F00
3F00
ENDCHAR
STARTCHAR u015C
ENCODING 348
SWIDTH 1332 0
DWIDTH 16 0
BBX 16 28 0 -8
BITMAP
0FC0
0FC0
3CF0
3CF0
0000
0000
3FF0
3FF0
F03C
F03C
F03C
F03C
3C00
3C00
0FC0
0FC0
00F0
00F0
F03C
F03C
F03C
F03C
3FF0
3FF0
0000
0000
0000
0000
ENDCHAR
STARTCHAR u0031
ENCODING 49
SWIDTH 1332 0
DWIDTH 16 0
BBX 16 28 0 -8
BITMAP
0000
0000
0000
0000
03C0
03C0
0FC0
0FC0
3FC0
3FC0
03C0
03C0
03C0
03C0
03C0
03C0
03C0
03C0
03C0
03C0
03C0
03C0
3FFC
3FFC
0000
0000
0000
0000
ENDCHAR
STARTCHAR u00B2
ENCODING 178
SWIDTH 1332 0
DWIDTH 16 0
BBX 16 28 0 -8
BITMAP
0000
0000
0FF0
0FF0
3C3C
3C3C
00F0
00F0
03C0
03C0
0F0C
0F0C
3FFC
3FFC
0000
0000
0000
0000
0000
0000
0000
0000
0000
0000
0000
0000
0000
0000
ENDCHAR
STARTCHAR u011D
ENCODING 285
SWIDTH 1332 0
DWIDTH 16 0
BBX 16 28 0 -8
BITMAP
0000
0000
0300
0300
0FC0
0FC0
3CF0
3CF0
0000
0000
3F3C
3F3C
F0F0
F0F0
F0F0
F0F0
F0F0
F0F0
F0F0
F0F0
3FF0
3FF0
00F0
00F0
F0F0
F0F0
3FC0
3FC0
ENDCHAR
STARTCHAR u007C
ENCODING 124
SWIDTH 1332 0
DWIDTH 16 0
BBX 16 28 0 -8
BITMAP
0000
0000
0000
0000
03C0
03C0
03C0
03C0
03C0
03C0
03C0
03C0
0000
0000
03C0
03C0
03C0
03C0
03C0
03C0
03C0
03C0
03C0
03C0
0000
0000
0000
0000
ENDCHAR
STARTCHAR u0068
ENCODING 104
SWIDTH 1332 0
DWIDTH 16 0
BBX 16 28 0 -8
BITMAP
0000
0000
0000
0000
FC00
FC00
3C00
3C00
3C00
3C00
3CF0
3CF0
3F3C
3F3C
3C3C
3C3C
3C3C
3C3C
3C3C
3C3C
3C3C
3C3C
FC3C
FC3C
0000
0000
0000
0000
ENDCHAR
STARTCHAR u2192
ENCODING 8594
SWIDTH 1332 0
DWIDTH 16 0
BBX 16 28 0 -8
BITMAP
0000
0000
0000
0000
0000
0000
0000
0000
0000
0000
03C0
03C0
00F0
00F0
FFFC
FFFC
00F0
00F0
03C0
03C0
0000
0000
0000
0000
0000
0000
0000
0000
ENDCHAR
STARTCHAR u00B5
ENCODING 181
SWIDTH 1332 0
DWIDTH 16 0
BBX 16 28 0 -8
BITMAP
0000
0000
0000
0000
0000
0000
0000
0000
0000
0000
3C3C
3C3C
3C3C
3C3C
3C3C
3C3C
3C3C
3C3C
3C3C
3C3C
3FF0
3FF0
3C00
3C00
3C00
3C00
F000
F000
ENDCHAR
STARTCHAR u00EA
ENCODING 234
SWIDTH 1332 0
DWIDTH 16 0
BBX 16 28 0 -8
BITMAP
0000
0000
0300
0300
0FC0
0FC0
3CF0
3CF0
0000
0000
3FF0
3FF0
F03C
F03C
FFFC
FFFC
F000
F000
F000
F000
F03C
F03C
3FF0
3FF0
0000
0000
0000
0000
ENDCHAR
STARTCHAR u013A
ENCODING 314
SWIDTH 1332 0
DWIDTH 16 0
BBX 16 28 0 -8
BITMAP
0000
0000
003C
003C
FCF0
FCF0
3C00
3C00
3C00
3C00
3C00
3C00
3C00
3C00
3C00
3C00
3C00
3C00
3C00
3C00
3C00
3C00
FF00
FF00
0000
0000
0000
0000
ENDCHAR
STARTCHAR u263A
ENCODING 9786
SWIDTH 1332 0
DWIDTH 16 0
BBX 16 28 0 -8
BITMAP
0000
0000
0000
0000
3FFC
3FFC
C003
C003
CC33
CC33
C003
C003
C003
C003
CFF3
CFF3
C3C3
C3C3
C003
C003
C003
C003
3FFC
3FFC
0000
0000
0000
0000
ENDCHAR
STARTCHAR u016C
ENCODING 364
SWIDTH 1332 0
DWIDTH 16 0
BBX 16 28 0 -8
BITMAP
F03C
F03C
3FF0
3FF0
0000
0000
F03C
F03C
F03C
F03C
F03C
F03C
F03C
F03C
F03C
F03C
F03C
F03C
F03C
F03C
F03C
F03C
3FF0
3FF0
0000
0000
0000
0000
ENDCHAR
STARTCHAR u0060
ENCODING 96
SWIDTH 1332 0
DWIDTH 16 0
BBX 16 28 0 -8
BITMAP
0F00
0F00
0F00
0F00
03C0
03C0
0000
0000
0000
0000
0000
0000
0000
0000
0000
0000
0000
0000
0000
0000
0000
0000
0000
0000
0000
0000
0000
0000
ENDCHAR
STARTCHAR u0163
ENCODING 355
SWIDTH 1332 0
DWIDTH 16 0
BBX 16 28 0 -8
BITMAP
0000
0000
0000
0000
0300
0300
0F00
0F00
0F00
0F00
FFF0
FFF0
0F00
0F00
0F00
0F00
0F00
0F00
0F00
0F00
0F3C
0F3C
03F0
03F0
00F0
00F0
0FC0
0FC0
ENDCHAR
STARTCHAR u2640
ENCODING 9792
SWIDTH 1332 0
DWIDTH 16 0
BBX 16 28 0 -8
BITMAP
0000
0000
0000
0000
0FF0
0FF0
3C3C
3C3C
3C3C
3C3C
3C3C
3C3C
3C3C
3C3C
0FF0
0FF0
03C0
03C0
3FFC
3FFC
03C0
03C0
03C0
03C0
0000
0000
0000
0000
ENDCHAR
STARTCHAR u0146
ENCODING 326
SWIDTH 1332 0
DWIDTH 16 0
BBX 16 28 0 -8
BITMAP
0000
0000
0000
0000
0000
0000
0000
0000
0000
0000
F3F0
F3F0
3C3C
3C3C
3C3C
3C3C
3C3C
3C3C
3C3C
3C3C
3C3C
3C3C
3C3C
3C3C
03C0
03C0
3F00
3F00
ENDCHAR
STARTCHAR u00A0
ENCODING 160
SWIDTH 1332 0
DWIDTH 16 0
BBX 16 28 0 -8
BITMAP
0000
0000
0000
0000
0000
0000
0000
0000
0000
0000
0000
0000
0000
0000
0000
0000
0000
0000
0000
0000
0000
0000
0000
0000
0000
0000
0000
0000
ENDCHAR
STARTCHAR u25D8
ENCODING 9688
SWIDTH 1332 0
DWIDTH 16 0
BBX 16 28 0 -8
BITMAP
FFFF
FFFF
FFFF
FFFF
FFFF
FFFF
FFFF
FFFF
FFFF
FFFF
FFFF
FFFF
FC3F
FC3F
F00F
F00F
F00F
F00F
FC3F
FC3F
FFFF
FFFF
FFFF
FFFF
FFFF
FFFF
FFFF
FFFF
ENDCHAR
STARTCHAR u002F
ENCODING 47
SWIDTH 1332 0
DWIDTH 16 0
BBX 16 28 0 -8
BITMAP
0000
0000
0000
0000
0000
0000
0000
0000
000C
000C
003C
003C
00F0
00F0
03C0
03C0
0F00
0F00
3C00
3C00
F000
F000
C000
C000
0000
0000
0000
0000
ENDCHAR
STARTCHAR u016F
ENCODING 367
SWIDTH 1332 0
DWIDTH 16 0
BBX 16 28 0 -8
BITMAP
0000
0000
3FC0
3FC0
F0F0
F0F0
3FC0
3FC0
0000
0000
F0F0
F0F0
F0F0
F0F0
F0F0
F0F0
F0F0
F0F0
F0F0
F0F0
F0F0
F0F0
3F3C
3F3C
0000
0000
0000
0000
ENDCHAR
STARTCHAR u0062
ENCODING 98
SWIDTH 1332 0
DWIDTH 16 0
BBX 16 28 0 -8
BITMAP
0000
0000
0000
0000
FC00
FC00
3C00
3C00
3C00
3C00
3FC0
3FC0
3CF0
3CF0
3C3C
3C3C
3C3C
3C3C
3C3C
3C3C
3C3C
3C3C
3FF0
3FF0
0000
0000
0000
0000
ENDCHAR
STARTCHAR u0025
ENCODING 37
SWIDTH 1332 0
DWIDTH 16 0
BBX 16 28 0 -8
BITMAP
0000
0000
0000
0000
0000
0000
0000
0000
F00C
F00C
F03C
F03C
00F0
00F0
03C0
03C0
0F00
0F00
3C00
3C00
F03C
F03C
C03C
C03C
0000
0000
0000
0000
ENDCHAR
STARTCHAR u002B
ENCODING 43
SWIDTH 1332 0
DWIDTH 16 0
BBX 16 28 0 -8
BITMAP
0000
0000
0000
0000
0000
0000
0000
0000
0000
0000
03C0
03C0
03C0
03C0
3FFC
3FFC
03C0
03C0
03C0
03C0
0000
0000
0000
0000
0000
0000
0000
0000
ENDCHAR
STARTCHAR u010E
ENCODING 270
SWIDTH 1332 0
DWIDTH 16 0
BBX 16 28 0 -8
BITMAP
F0F0
F0F0
3FC0
3FC0
0000
0000
FFC0
FFC0
3CF0
3CF0
3C3C
3C3C
3C3C
3C3C
3C3C
3C3C
3C3C
3C3C
3C3C
3C3C
3CF0
3CF0
FFC0
FFC0
0000
0000
0000
0000
ENDCHAR
STARTCHAR u00C3
ENCODING 195
SWIDTH 1332 0
DWIDTH 16 0
BBX 16 28 0 -8
BITMAP
3F3C
3F3C
F3F0
F3F0
0000
0000
0300
0300
0FC0
0FC0
3CF0
3CF0
F03C
F03C
F03C
F03C
FFFC
FFFC
F03C
F03C
F03C
F03C
F03C
F03C
0000
0000
0000
0000
ENDCHAR
STARTCHAR u2660
ENCODING 9824
SWIDTH 1332 0
DWIDTH 16 0
BBX 16 28 0 -8
BITMAP
0000
0000
0000
0000
0000
0000
03C0
03C0
0FF0
0FF0
3FFC
3FFC
FFFF
FFFF
FFFF
FFFF
3FFC
3FFC
03C0
03C0
03C0
03C0
0FF0
0FF0
0000
0000
0000
0000
ENDCHAR
STARTCHAR u25BA
ENCODING 9658
SWIDTH 1332 0
DWIDTH 16 0
BBX 16 28 0 -8
BITMAP
0000
0000
C000
C000
F000
F000
FC00
FC00
FF00
FF00
FFC0
FFC0
FFFC
FFFC
FFC0
FFC0
FF00
FF00
FC00
FC00
F000
F000
C000
C000
0000
0000
0000
0000
ENDCHAR
STARTCHAR u263B
ENCODING 9787
SWIDTH 1332 0
DWIDTH 16 0
BBX 16 28 0 -8
BITMAP
0000
0000
0000
0000
3FFC
3FFC
FFFF
FFFF
F3CF
F3CF
FFFF
FFFF
FFFF
FFFF
F00F
F00F
FC3F
FC3F
FFFF
FFFF
FFFF
FFFF
3FFC
3FFC
0000
0000
0000
0000
ENDCHAR
STARTCHAR u221F
ENCODING 8735
SWIDTH 1332 0
DWIDTH 16 0
BBX 16 28 0 -8
BITMAP
0000
0000
0000
0000
0000
0000
0000
0000
0000
0000
0000
0000
F000
F000
F000
F000
F000
F000
FFFC
FFFC
0000
0000
0000
0000
0000
0000
0000
0000
ENDCHAR
STARTCHAR u25D9
ENCODING 9689
SWIDTH 1332 0
DWIDTH 16 0
BBX 16 28 0 -8
BITMAP
FFFF
FFFF
FFFF
FFFF
FFFF
FFFF
FFFF
FFFF
FFFF
FFFF
F00F
F00F
C3C3
C3C3
CFF3
CFF3
CFF3
CFF3
C3C3
C3C3
F00F
F00F
FFFF
FFFF
FFFF
FFFF
FFFF
FFFF
ENDCHAR
STARTCHAR u0120
ENCODING 288
SWIDTH 1332 0
DWIDTH 16 0
BBX 16 28 0 -8
BITMAP
03C0
03C0
03C0
03C0
0000
0000
0FF0
0FF0
3C3C
3C3C
F00C
F00C
F000
F000
F3FC
F3FC
F03C
F03C
F03C
F03C
3C3C
3C3C
0FCC
0FCC
0000
0000
0000
0000
ENDCHAR
STARTCHAR u00C1
ENCODING 193
SWIDTH 1332 0
DWIDTH 16 0
BBX 16 28 0 -8
BITMAP
00F0
00F0
03C0
03C0
0000
0000
0300
0300
0FC0
0FC0
3CF0
3CF0
F03C
F03C
F03C
F03C
FFFC
FFFC
F03C
F03C
F03C
F03C
F03C
F03C
0000
0000
0000
0000
ENDCHAR
STARTCHAR u0077
ENCODING 119
SWIDTH 1332 0
DWIDTH 16 0
BBX 16 28 0 -8
BITMAP
0000
0000
0000
0000
0000
0000
0000
0000
0000
0000
F03C
F03C
F03C
F03C
F33C
F33C
F33C
F33C
F33C
F33C
FFFC
FFFC
3CF0
3CF0
0000
0000
0000
0000
ENDCHAR
STARTCHAR u0144
ENCODING 324
SWIDTH 1332 0
DWIDTH 16 0
BBX 16 28 0 -8
BITMAP
0000
0000
0000
0000
03C0
03C0
0F00
0F00
0000
0000
F3F0
F3F0
3C3C
3C3C
3C3C
3C3C
3C3C
3C3C
3C3C
3C3C
3C3C
3C3C
3C3C
3C3C
0000
0000
0000
0000
ENDCHAR
STARTCHAR u00B4
ENCODING 180
SWIDTH 1332 0
DWIDTH 16 0
BBX 16 28 0 -8
BITMAP
0000
0000
00F0
00F0
03C0
03C0
0F00
0F00
0000
0000
0000
0000
0000
0000
0000
0000
0000
0000
0000
0000
0000
0000
0000
0000
0000
0000
0000
0000
ENDCHAR
STARTCHAR u00F4
ENCODING 244
SWIDTH 1332 0
DWIDTH 16 0
BBX 16 28 0 -8
BITMAP
0000
0000
0300
0300
0FC0
0FC0
3CF0
3CF0
0000
0000
3FF0
3FF0
F03C
F03C
F03C
F03C
F03C
F03C
F03C
F03C
F03C
F03C
3FF0
3FF0
0000
0000
0000
0000
ENDCHAR
STARTCHAR u015F
ENCODING 351
SWIDTH 1332 0
DWIDTH 16 0
BBX 16 28 0 -8
BITMAP
0000
0000
0000
0000
0000
0000
0000
0000
0000
0000
3FF0
3FF0
F03C
F03C
3C00
3C00
0FC0
0FC0
00F0
00F0
F03C
F03C
3FF0
3FF0
03C0
03C0
3FC0
3FC0
ENDCHAR
STARTCHAR u00F0
ENCODING 240
SWIDTH 1332 0
DWIDTH 16 0
BBX 16 28 0 -8
BITMAP
0000
0000
0000
0000
0F00
0F00
3FFC
3FFC
3FFC
3FFC
03F0
03F0
0FF0
0FF0
3CF0
3CF0
F0F0
F0F0
F0F0
F0F0
F0F0
F0F0
3FC0
3FC0
0000
0000
0000
0000
ENDCHAR
STARTCHAR u00F6
ENCODING 246
SWIDTH 1332 0
DWIDTH 16 0
BBX 16 28 0 -8
BITMAP
0000
0000
0000
0000
F03C
F03C
0000
0000
0000
0000
3FF0
3FF0
F03C
F03C
F03C
F03C
F03C
F03C
F03C
F03C
F03C
F03C
3FF0
3FF0
0000
0000
0000
0000
ENDCHAR
STARTCHAR u004A
ENCODING 74
SWIDTH 1332 0
DWIDTH 16 0
BBX 16 28 0 -8
BITMAP
0000
0000
0000
0000
03FC
03FC
00F0
00F0
00F0
00F0
00F0
00F0
00F0
00F0
00F0
00F0
F0F0
F0F0
F0F0
F0F0
F0F0
F0F0
3FC0
3FC0
0000
0000
0000
0000
ENDCHAR
STARTCHAR u003D
ENCODING 61
SWIDTH 1332 0
DWIDTH 16 0
BBX 16 28 0 -8
BITMAP
0000
0000
0000
0000
0000
0000
0000
0000
0000
0000
3FFC
3FFC
0000
0000
0000
0000
3FFC
3FFC
0000
0000
0000
0000
0000
0000
0000
0000
0000
0000
ENDCHAR
STARTCHAR u00E6
ENCODING 230
SWIDTH 1332 0
DWIDTH 16 0
BBX 16 28 0 -8
BITMAP
0000
0000
0000
0000
0000
0000
0000
0000
0000
0000
FCF0
FCF0
0F3C
0F3C
0F3C
0F3C
3FFC
3FFC
F3C0
F3C0
F3C0
F3C0
3CFC
3CFC
0000
0000
0000
0000
ENDCHAR
STARTCHAR u012B
ENCODING 299
SWIDTH 1332 0
DWIDTH 16 0
BBX 16 28 0 -8
BITMAP
0000
0000
0000
0000
0000
0000
3FF0
3FF0
0000
0000
0FC0
0FC0
03C0
03C0
03C0
03C0
03C0
03C0
03C0
03C0
03C0
03C0
0FF0
0FF0
0000
0000
0000
0000
ENDCHAR
STARTCHAR u0073
ENCODING 115
SWIDTH 1332 0
DWIDTH 16 0
BBX 16 28 0 -8
BITMAP
0000
0000
0000
0000
0000
0000
0000
0000
0000
0000
3FF0
3FF0
F03C
F03C
3C00
3C00
0FC0
0FC0
00F0
00F0
F03C
F03C
3FF0
3FF0
0000
0000
0000
0000
ENDCHAR
STARTCHAR u0179
ENCODING 377
SWIDTH 1332 0
DWIDTH 16 0
BBX 16 28 0 -8
BITMAP
0000
0000
00F0
00F0
03C0
03C0
0000
0000
FFFC
FFFC
C03C
C03C
00F0
00F0
03C0
03C0
0F00
0F00
3C00
3C00
F00C
F00C
FFFC
FFFC
0000
0000
0000
0000
ENDCHAR
STARTCHAR u0067
ENCODING 103
SWIDTH 1332 0
DWIDTH 16 0
BBX 16 28 0 -8
BITMAP
0000
0000
0000
0000
0000
0000
0000
0000
0000
0000
3F3C
3F3C
F0F0
F0F0
F0F0
F0F0
F0F0
F0F0
F0F0
F0F0
3FF0
3FF0
00F0
00F0
F0F0
F0F0
3FC0
3FC0
ENDCHAR
STARTCHAR u00C9
ENCODING 201
SWIDTH 1332 0
DWIDTH 16 0
BBX 16 28 0 -8
BITMAP
0000
0000
0F00
0F00
3C00
3C00
0000
0000
FFFC
FFFC
3C3C
3C3C
3C0C
3C0C
3FC0
3FC0
3C00
3C00
3C00
3C00
3C3C
3C3C
FFFC
FFFC
0000
0000
0000
0000
ENDCHAR
STARTCHAR u017B
ENCODING 379
SWIDTH 1332 0
DWIDTH 16 0
BBX 16 28 0 -8
BITMAP
0300
0300
0FC0
0FC0
0300
0300
FFFC
FFFC
C03C
C03C
00F0
00F0
03C0
03C0
0F00
0F00
3C00
3C00
F00C
F00C
F00C
F00C
FFFC
FFFC
0000
0000
0000
0000
ENDCHAR
STARTCHAR u0071
ENCODING 113
SWIDTH 1332 0
DWIDTH 16 0
BBX 16 28 0 -8
BITMAP
0000
0000
0000
0000
0000
0000
0000
0000
0000
0000
3F3C
3F3C
F0F0
F0F0
F0F0
F0F0
F0F0
F0F0
F0F0
F0F0
3FF0
3FF0
00F0
00F0
00F0
00F0
03FC
03FC
ENDCHAR
STARTCHAR u00BD
ENCODING 189
SWIDTH 1332 0
DWIDTH 16 0
BBX 16 28 0 -8
BITMAP
0000
0000
3C00
3C00
FC00
FC00
3C0C
3C0C
3C3C
3C3C
3CF0
3CF0
03C0
03C0
0F00
0F00
3CFC
3CFC
F00F
F00F
C03C
C03C
00F0
00F0
03FF
03FF
0000
0000
ENDCHAR
STARTCHAR u0156
ENCODING 342
SWIDTH 1332 0
DWIDTH 16 0
BBX 16 28 0 -8
BITMAP
0000
0000
0000
0000
FFF0
FFF0
3C3C
3C3C
3C3C
3C3C
3C3C
3C3C
3FF0
3FF0
3CF0
3CF0
3C3C
3C3C
3C3C
3C3C
3C3C
3C3C
FC3C
FC3C
03C0
03C0
3F00
3F00
ENDCHAR
STARTCHAR u010A
ENCODING 266
SWIDTH 1332 0
DWIDTH 16 0
BBX 16 28 0 -8
BITMAP
0000
0000
03C0
03C0
03C0
03C0
0000
0000
0FF0
0FF0
3C3C
3C3C
F00C
F00C
F000
F000
F000
F000
F00C
F00C
3C3C
3C3C
0FF0
0FF0
0000
0000
0000
0000
ENDCHAR
STARTCHAR u0127
ENCODING 295
SWIDTH 1332 0
DWIDTH 16 0
BBX 16 28 0 -8
BITMAP
0000
0000
0000
0000
FC00
FC00
3C00
3C00
FF00
FF00
3C00
3C00
3CF0
3CF0
3F3C
3F3C
3C3C
3C3C
3C3C
3C3C
3C3C
3C3C
FC3C
FC3C
0000
0000
0000
0000
ENDCHAR
STARTCHAR u005B
ENCODING 91
SWIDTH 1332 0
DWIDTH 16 0
BBX 16 28 0 -8
BITMAP
0000
0000
0000
0000
0FF0
0FF0
0F00
0F00
0F00
0F00
0F00
0F00
0F00
0F00
0F00
0F00
0F00
0F00
0F00
0F00
0F00
0F00
0FF0
0FF0
0000
0000
0000
0000
ENDCHAR
STARTCHAR u0155
ENCODING 341
SWIDTH 1332 0
DWIDTH 16 0
BBX 16 28 0 -8
BITMAP
0000
0000
00F0
00F0
03C0
03C0
0F00
0F00
0000
0000
F3F0
F3F0
3F3C
3F3C
3C3C
3C3C
3C00
3C00
3C00
3C00
3C00
3C00
FF00
FF00
0000
0000
0000
0000
ENDCHAR
STARTCHAR u006B
ENCODING 107
SWIDTH 1332 0
DWIDTH 16 0
BBX 16 28 0 -8
BITMAP
0000
0000
0000
0000
FC00
FC00
3C00
3C00
3C00
3C00
3C3C
3C3C
3CF0
3CF0
3FC0
3FC0
3FC0
3FC0
3CF0
3CF0
3C3C
3C3C
FC3C
FC3C
0000
0000
0000
0000
ENDCHAR
STARTCHAR u0057
ENCODING 87
SWIDTH 1332 0
DWIDTH 16 0
BBX 16 28 0 -8
BITMAP
0000
0000
0000
0000
F03C
F03C
F03C
F03C
F03C
F03C
F03C
F03C
F33C
F33C
F33C
F33C
F33C
F33C
FFFC
FFFC
FCFC
FCFC
3CF0
3CF0
0000
0000
0000
0000
ENDCHAR
STARTCHAR u004D
ENCODING 77
SWIDTH 1332 0
DWIDTH 16 0
BBX 16 28 0 -8
BITMAP
0000
0000
0000
0000
F03C
F03C
FCFC
FCFC
FFFC
FFFC
FFFC
FFFC
F33C
F33C
F03C
F03C
F03C
F03C
F03C
F03C
F03C
F03C
F03C
F03C
0000
0000
0000
0000
ENDCHAR
STARTCHAR u00D6
ENCODING 214
SWIDTH 1332 0
DWIDTH 16 0
BBX 16 28 0 -8
BITMAP
0000
0000
F03C
F03C
0000
0000
3FF0
3FF0
F03C
F03C
F03C
F03C
F03C
F03C
F03C
F03C
F03C
F03C
F03C
F03C
F03C
F03C
3FF0
3FF0
0000
0000
0000
0000
ENDCHAR
STARTCHAR u00DD
ENCODING 221
SWIDTH 1332 0
DWIDTH 16 0
BBX 16 28 0 -8
BITMAP
00F0
00F0
03C0
03C0
0000
0000
3C3C
3C3C
3C3C
3C3C
3C3C
3C3C
3C3C
3C3C
0FF0
0FF0
03C0
03C0
03C0
03C0
03C0
03C0
0FF0
0FF0
0000
0000
0000
0000
ENDCHAR
STARTCHAR u0027
ENCODING 39
SWIDTH 1332 0
DWIDTH 16 0
BBX 16 28 0 -8
BITMAP
0000
0000
0F00
0F00
0F00
0F00
0F00
0F00
3C00
3C00
0000
0000
0000
0000
0000
0000
0000
0000
0000
0000
0000
0000
0000
0000
0000
0000
0000
0000
ENDCHAR
STARTCHAR u0040
ENCODING 64
SWIDTH 1332 0
DWIDTH 16 0
BBX 16 28 0 -8
BITMAP
0000
0000
0000
0000
0000
0000
3FF0
3FF0
F03C
F03C
F03C
F03C
F3FC
F3FC
F3FC
F3FC
F3F0
F3F0
F3F0
F3F0
F000
F000
3FF0
3FF0
0000
0000
0000
0000
ENDCHAR
STARTCHAR u0061
ENCODING 97
SWIDTH 1332 0
DWIDTH 16 0
BBX 16 28 0 -8
BITMAP
0000
0000
0000
0000
0000
0000
0000
0000
0000
0000
3FC0
3FC0
00F0
00F0
3FF0
3FF0
F0F0
F0F0
F0F0
F0F0
F0F0
F0F0
3F3C
3F3C
0000
0000
0000
0000
ENDCHAR
STARTCHAR u02DB
ENCODING 731
SWIDTH 1332 0
DWIDTH 16 0
BBX 16 28 0 -8
BITMAP
0000
0000
0000
0000
0000
0000
0000
0000
0000
0000
0000
0000
0000
0000
0000
0000
0000
0000
0000
0000
0000
0000
0F00
0F00
0F00
0F00
03F0
03F0
ENDCHAR
STARTCHAR u0029
ENCODING 41
SWIDTH 1332 0
DWIDTH 16 0
BBX 16 28 0 -8
BITMAP
0000
0000
0000
0000
0F00
0F00
03C0
03C0
00F0
00F0
00F0
00F0
00F0
00F0
00F0
00F0
00F0
00F0
00F0
00F0
03C0
03C0
0F00
0F00
0000
0000
0000
0000
ENDCHAR
STARTCHAR u0034
ENCODING 52
SWIDTH 1332 0
DWIDTH 16 0
BBX 16 28 0 -8
BITMAP
0000
0000
0000
0000
00F0
00F0
03F0
03F0
0FF0
0FF0
3CF0
3CF0
F0F0
F0F0
FFFC
FFFC
00F0
00F0
00F0
00F0
00F0
00F0
03FC
03FC
0000
0000
0000
0000
ENDCHAR
STARTCHAR u012E
ENCODING 302
SWIDTH 1332 0
DWIDTH 16 0
BBX 16 28 0 -8
BITMAP
0000
0000
0000
0000
0FF0
0FF0
03C0
03C0
03C0
03C0
03C0
03C0
03C0
03C0
03C0
03C0
03C0
03C0
03C0
03C0
03C0
03C0
0FF0
0FF0
0F00
0F00
03FC
03FC
ENDCHAR
STARTCHAR u0138
ENCODING 312
SWIDTH 1332 0
DWIDTH 16 0
BBX 16 28 0 -8
BITMAP
0000
0000
0000
0000
0000
0000
0000
0000
0000
0000
FC3C
FC3C
3CF0
3CF0
3FC0
3FC0
3FC0
3FC0
3CF0
3CF0
3C3C
3C3C
FC3C
FC3C
0000
0000
0000
0000
ENDCHAR
STARTCHAR u00E5
ENCODING 229
SWIDTH 1332 0
DWIDTH 16 0
BBX 16 28 0 -8
BITMAP
0000
0000
0000
0000
0FC0
0FC0
3CF0
3CF0
0FC0
0FC0
3FC0
3FC0
00F0
00F0
3FF0
3FF0
F0F0
F0F0
F0F0
F0F0
F0F0
F0F0
3F3C
3F3C
0000
0000
0000
0000
ENDCHAR
STARTCHAR u002D
ENCODING 45
SWIDTH 1332 0
DWIDTH 16 0
BBX 16 28 0 -8
BITMAP
0000
0000
0000
0000
0000
0000
0000
0000
0000
0000
0000
0000
0000
0000
FFFC
FFFC
0000
0000
0000
0000
0000
0000
0000
0000
0000
0000
0000
0000
ENDCHAR
STARTCHAR u0104
ENCODING 260
SWIDTH 1332 0
DWIDTH 16 0
BBX 16 28 0 -8
BITMAP
0000
0000
0000
0000
0300
0300
0FC0
0FC0
3CF0
3CF0
F03C
F03C
F03C
F03C
FFFC
FFFC
F03C
F03C
F03C
F03C
F03C
F03C
F0FC
F0FC
00F0
00F0
003C
003C
ENDCHAR
STARTCHAR u00ED
ENCODING 237
SWIDTH 1332 0
DWIDTH 16 0
BBX 16 28 0 -8
BITMAP
0000
0000
00F0
00F0
03C0
03C0
0F00
0F00
0000
0000
0FC0
0FC0
03C0
03C0
03C0
03C0
03C0
03C0
03C0
03C0
03C0
03C0
0FF0
0FF0
0000
0000
0000
0000
ENDCHAR
STARTCHAR u0172
ENCODING 370
SWIDTH 1332 0
DWIDTH 16 0
BBX 16 28 0 -8
BITMAP
0000
0000
0000
0000
F03C
F03C
F03C
F03C
F03C
F03C
F03C
F03C
F03C
F03C
F03C
F03C
F03C
F03C
F03C
F03C
F03C
F03C
3FF0
3FF0
0F00
0F00
03F0
03F0
ENDCHAR
STARTCHAR u2191
ENCODING 8593
SWIDTH 1332 0
DWIDTH 16 0
BBX 16 28 0 -8
BITMAP
0000
0000
0000
0000
03C0
03C0
0FF0
0FF0
3FFC
3FFC
03C0
03C0
03C0
03C0
03C0
03C0
03C0
03C0
03C0
03C0
03C0
03C0
03C0
03C0
0000
0000
0000
0000
ENDCHAR
STARTCHAR u0135
ENCODING 309
SWIDTH 1332 0
DWIDTH 16 0
BBX 16 28 0 -8
BITMAP
0000
0000
0030
0030
00FC
00FC
03CF
03CF
0000
0000
00FC
00FC
003C
003C
003C
003C
003C
003C
003C
003C
003C
003C
3C3C
3C3C
3C3C
3C3C
0FF0
0FF0
ENDCHAR
STARTCHAR u0044
ENCODING 68
SWIDTH 1332 0
DWIDTH 16 0
BBX 16 28 0 -8
BITMAP
0000
0000
0000
0000
FFC0
FFC0
3CF0
3CF0
3C3C
3C3C
3C3C
3C3C
3C3C
3C3C
3C3C
3C3C
3C3C
3C3C
3C3C
3C3C
3CF0
3CF0
FFC0
FFC0
0000
0000
0000
0000
ENDCHAR
STARTCHAR u013B
ENCODING 315
SWIDTH 1332 0
DWIDTH 16 0
BBX 16 28 0 -8
BITMAP
0000
0000
0000
0000
FF00
FF00
3C00
3C00
3C00
3C00
3C00
3C00
3C00
3C00
3C00
3C00
3C00
3C00
3C0C
3C0C
3C3C
3C3C
FFFC
FFFC
03C0
03C0
3F00
3F00
ENDCHAR
STARTCHAR u266B
ENCODING 9835
SWIDTH 1332 0
DWIDTH 16 0
BBX 16 28 0 -8
BITMAP
0000
0000
0000
0000
3FFC
3FFC
3C3C
3C3C
3FFC
3FFC
3C3C
3C3C
3C3C
3C3C
3C3C
3C3C
3C3C
3C3C
3CFC
3CFC
FCFC
FCFC
FCF0
FCF0
F000
F000
0000
0000
ENDCHAR
STARTCHAR u0074
ENCODING 116
SWIDTH 1332 0
DWIDTH 16 0
BBX 16 28 0 -8
BITMAP
0000
0000
0000
0000
0300
0300
0F00
0F00
0F00
0F00
FFF0
FFF0
0F00
0F00
0F00
0F00
0F00
0F00
0F00
0F00
0F3C
0F3C
03F0
03F0
0000
0000
0000
0000
ENDCHAR
STARTCHAR u21A8
ENCODING 8616
SWIDTH 1332 0
DWIDTH 16 0
BBX 16 28 0 -8
BITMAP
0000
0000
0000
0000
03C0
03C0
0FF0
0FF0
3FFC
3FFC
03C0
03C0
03C0
03C0
03C0
03C0
3FFC
3FFC
0FF0
0FF0
03C0
03C0
3FFC
3FFC
0000
0000
0000
0000
ENDCHAR
STARTCHAR u017C
ENCODING 380
SWIDTH 1332 0
DWIDTH 16 0
BBX 16 28 0 -8
BITMAP
0000
0000
0000
0000
0300
0300
0FC0
0FC0
0300
0300
FFFC
FFFC
F0F0
F0F0
03C0
03C0
0F00
0F00
3C00
3C00
F03C
F03C
FFFC
FFFC
0000
0000
0000
0000
ENDCHAR
STARTCHAR u0064
ENCODING 100
SWIDTH 1332 0
DWIDTH 16 0
BBX 16 28 0 -8
BITMAP
0000
0000
0000
0000
03F0
03F0
00F0
00F0
00F0
00F0
0FF0
0FF0
3CF0
3CF0
F0F0
F0F0
F0F0
F0F0
F0F0
F0F0
F0F0
F0F0
3F3C
3F3C
0000
0000
0000
0000
ENDCHAR
STARTCHAR u00DE
ENCODING 222
SWIDTH 1332 0
DWIDTH 16 0
BBX 16 28 0 -8
BITMAP
0000
0000
0000
0000
FF00
FF00
3C00
3C00
3FF0
3FF0
3C3C
3C3C
3C3C
3C3C
3C3C
3C3C
3C3C
3C3C
3FF0
3FF0
3C00
3C00
FF00
FF00
0000
0000
0000
0000
ENDCHAR
STARTCHAR u011E
ENCODING 286
SWIDTH 1332 0
DWIDTH 16 0
BBX 16 28 0 -8
BITMAP
F03C
F03C
3FF0
3FF0
0000
0000
0FF0
0FF0
3C3C
3C3C
F00C
F00C
F000
F000
F3FC
F3FC
F03C
F03C
F03C
F03C
3C3C
3C3C
0FCC
0FCC
0000
0000
0000
0000
ENDCHAR
STARTCHAR u0078
ENCODING 120
SWIDTH 1332 0
DWIDTH 16 0
BBX 16 28 0 -8
BITMAP
0000
0000
0000
0000
0000
0000
0000
0000
0000
0000
F03C
F03C
3CF0
3CF0
0FC0
0FC0
0FC0
0FC0
0FC0
0FC0
3CF0
3CF0
F03C
F03C
0000
0000
0000
0000
ENDCHAR
STARTCHAR u0053
ENCODING 83
SWIDTH 1332 0
DWIDTH 16 0
BBX 16 28 0 -8
BITMAP
0000
0000
0000
0000
3FF0
3FF0
F03C
F03C
F03C
F03C
3C00
3C00
0FC0
0FC0
00F0
00F0
003C
003C
F03C
F03C
F03C
F03C
3FF0
3FF0
0000
0000
0000
0000
ENDCHAR
STARTCHAR u2194
ENCODING 8596
SWIDTH 1332 0
DWIDTH 16 0
BBX 16 28 0 -8
BITMAP
0000
0000
0000
0000
0000
0000
0000
0000
0000
0000
0CC0
0CC0
3CF0
3CF0
FFFC
FFFC
3CF0
3CF0
0CC0
0CC0
0000
0000
0000
0000
0000
0000
0000
0000
ENDCHAR
STARTCHAR u0131
ENCODING 305
SWIDTH 1332 0
DWIDTH 16 0
BBX 16 28 0 -8
BITMAP
0000
0000
0000
0000
0000
0000
0000
0000
0000
0000
0FC0
0FC0
03C0
03C0
03C0
03C0
03C0
03C0
03C0
03C0
03C0
03C0
0FF0
0FF0
0000
0000
0000
0000
ENDCHAR
STARTCHAR u017D
ENCODING 381
SWIDTH 1332 0
DWIDTH 16 0
BBX 16 28 0 -8
BITMAP
0000
0000
3C3C
3C3C
0FF0
0FF0
0000
0000
FFFC
FFFC
C03C
C03C
00F0
00F0
03C0
03C0
0F00
0F00
3C00
3C00
F00C
F00C
FFFC
FFFC
0000
0000
0000
0000
ENDCHAR
STARTCHAR u0134
ENCODING 308
SWIDTH 1332 0
DWIDTH 16 0
BBX 16 28 0 -8
BITMAP
03F0
03F0
0F3C
0F3C
0000
0000
03FC
03FC
00F0
00F0
00F0
00F0
00F0
00F0
00F0
00F0
F0F0
F0F0
F0F0
F0F0
F0F0
F0F0
3FC0
3FC0
0000
0000
0000
0000
ENDCHAR
STARTCHAR u00FE
ENCODING 254
SWIDTH 1332 0
DWIDTH 16 0
BBX 16 28 0 -8
BITMAP
0000
0000
FC00
FC00
3C00
3C00
3C00
3C00
3FF0
3FF0
3C3C
3C3C
3C3C
3C3C
3C3C
3C3C
3C3C
3C3C
3C3C
3C3C
3FF0
3FF0
3C00
3C00
3C00
3C00
FF00
FF00
ENDCHAR
STARTCHAR u00D9
ENCODING 217
SWIDTH 1332 0
DWIDTH 16 0
BBX 16 28 0 -8
BITMAP
0F00
0F00
03C0
03C0
0000
0000
F03C
F03C
F03C
F03C
F03C
F03C
F03C
F03C
F03C
F03C
F03C
F03C
F03C
F03C
F03C
F03C
3FF0
3FF0
0000
0000
0000
0000
ENDCHAR
STARTCHAR u0148
ENCODING 328
SWIDTH 1332 0
DWIDTH 16 0
BBX 16 28 0 -8
BITMAP
0000
0000
0000
0000
3CF0
3CF0
0FC0
0FC0
0000
0000
F3F0
F3F0
3C3C
3C3C
3C3C
3C3C
3C3C
3C3C
3C3C
3C3C
3C3C
3C3C
3C3C
3C3C
0000
0000
0000
0000
ENDCHAR
STARTCHAR u00EF
ENCODING 239
SWIDTH 1332 0
DWIDTH 16 0
BBX 16 28 0 -8
BITMAP
0000
0000
0000
0000
0000
0000
3C3C
3C3C
0000
0000
0FC0
0FC0
03C0
03C0
03C0
03C0
03C0
03C0
03C0
03C0
03C0
03C0
0FF0
0FF0
0000
0000
0000
0000
ENDCHAR
STARTCHAR u007A
ENCODING 122
SWIDTH 1332 0
DWIDTH 16 0
BBX 16 28 0 -8
BITMAP
0000
0000
0000
0000
0000
0000
0000
0000
0000
0000
FFFC
FFFC
F0F0
F0F0
03C0
03C0
0F00
0F00
3C00
3C00
F03C
F03C
FFFC
FFFC
0000
0000
0000
0000
ENDCHAR
STARTCHAR u203C
ENCODING 8252
SWIDTH 1332 0
DWIDTH 16 0
BBX 16 28 0 -8
BITMAP
0000
0000
0000
0000
3C3C
3C3C
3C3C
3C3C
3C3C
3C3C
3C3C
3C3C
3C3C
3C3C
3C3C
3C3C
3C3C
3C3C
0000
0000
3C3C
3C3C
3C3C
3C3C
0000
0000
0000
0000
ENDCHAR
STARTCHAR u0119
ENCODING 281
SWIDTH 1332 0
DWIDTH 16 0
BBX 16 28 0 -8
BITMAP
0000
0000
0000
0000
0000
0000
0000
0000
0000
0000
3FF0
3FF0
F03C
F03C
FFFC
FFFC
F000
F000
F000
F000
F03C
F03C
3FF0
3FF0
03C0
03C0
03F0
03F0
ENDCHAR
STARTCHAR u010D
ENCODING 269
SWIDTH 1332 0
DWIDTH 16 0
BBX 16 28 0 -8
BITMAP
0000
0000
0000
0000
3CF0
3CF0
0FC0
0FC0
0000
0000
3FF0
3FF0
F03C
F03C
F000
F000
F000
F000
F000
F000
F03C
F03C
3FF0
3FF0
0000
0000
0000
0000
ENDCHAR
STARTCHAR u00CD
ENCODING 205
SWIDTH 1332 0
DWIDTH 16 0
BBX 16 28 0 -8
BITMAP
00F0
00F0
03C0
03C0
0000
0000
0FF0
0FF0
03C0
03C0
03C0
03C0
03C0
03C0
03C0
03C0
03C0
03C0
03C0
03C0
03C0
03C0
0FF0
0FF0
0000
0000
0000
0000
ENDCHAR
STARTCHAR u002A
ENCODING 42
SWIDTH 1332 0
DWIDTH 16 0
BBX 16 28 0 -8
BITMAP
0000
0000
0000
0000
0000
0000
0000
0000
0000
0000
3C3C
3C3C
0FF0
0FF0
FFFF
FFFF
0FF0
0FF0
3C3C
3C3C
0000
0000
0000
0000
0000
0000
0000
0000
ENDCHAR
STARTCHAR u016B
ENCODING 363
SWIDTH 1332 0
DWIDTH 16 0
BBX 16 28 0 -8
BITMAP
0000
0000
0000
0000
0000
0000
3FC0
3FC0
0000
0000
F0F0
F0F0
F0F0
F0F0
F0F0
F0F0
F0F0
F0F0
F0F0
F0F0
F0F0
F0F0
3F3C
3F3C
0000
0000
0000
0000
ENDCHAR
STARTCHAR u002E
ENCODING 46
SWIDTH 1332 0
DWIDTH 16 0
BBX 16 28 0 -8
BITMAP
0000
0000
0000
0000
0000
0000
0000
0000
0000
0000
0000
0000
0000
0000
0000
0000
0000
0000
0000
0000
03C0
03C0
03C0
03C0
0000
0000
0000
0000
ENDCHAR
STARTCHAR u00EB
ENCODING 235
SWIDTH 1332 0
DWIDTH 16 0
BBX 16 28 0 -8
BITMAP
0000
0000
0000
0000
F03C
F03C
0000
0000
0000
0000
3FF0
3FF0
F03C
F03C
FFFC
FFFC
F000
F000
F000
F000
F03C
F03C
3FF0
3FF0
0000
0000
0000
0000
ENDCHAR
STARTCHAR u02DD
ENCODING 733
SWIDTH 1332 0
DWIDTH 16 0
BBX 16 28 0 -8
BITMAP
0000
0000
0F3C
0F3C
3CF0
3CF0
F3C0
F3C0
0000
0000
0000
0000
0000
0000
0000
0000
0000
0000
0000
0000
0000
0000
0000
0000
0000
0000
0000
0000
ENDCHAR
STARTCHAR u0024
ENCODING 36
SWIDTH 1332 0
DWIDTH 16 0
BBX 16 28 0 -8
BITMAP
03C0
03C0
03C0
03C0
3FF0
3FF0
F03C
F03C
F00C
F00C
F000
F000
3FF0
3FF0
003C
003C
003C
003C
C03C
C03C
F03C
F03C
3FF0
3FF0
03C0
03C0
03C0
03C0
ENDCHAR
STARTCHAR u00D5
ENCODING 213
SWIDTH 1332 0
DWIDTH 16 0
BBX 16 28 0 -8
BITMAP
0000
0000
3F3C
3F3C
F3F0
F3F0
0000
0000
3FF0
3FF0
F03C
F03C
F03C
F03C
F03C
F03C
F03C
F03C
F03C
F03C
F03C
F03C
3FF0
3FF0
0000
0000
0000
0000
ENDCHAR
STARTCHAR u00B7
ENCODING 183
SWIDTH 1332 0
DWIDTH 16 0
BBX 16 28 0 -8
BITMAP
0000
0000
0000
0000
0000
0000
0000
0000
0000
0000
03C0
03C0
03C0
03C0
0000
0000
0000
0000
0000
0000
0000
0000
0000
0000
0000
0000
0000
0000
ENDCHAR
STARTCHAR u25B6
ENCODING 9654
SWIDTH 1332 0
DWIDTH 16 0
BBX 16 28 0 -8
BITMAP
0000
0000
C000
C000
F000
F000
FC00
FC00
FF00
FF00
FFC0
FFC0
FFFC
FFFC
FFC0
FFC0
FF00
FF00
FC00
FC00
F000
F000
C000
C000
0000
0000
0000
0000
ENDCHAR
STARTCHAR u005E
ENCODING 94
SWIDTH 1332 0
DWIDTH 16 0
BBX 16 28 0 -8
BITMAP
0300
0300
0FC0
0FC0
3CF0
3CF0
F03C
F03C
0000
0000
0000
0000
0000
0000
0000
0000
0000
0000
0000
0000
0000
0000
0000
0000
0000
0000
0000
0000
ENDCHAR
STARTCHAR u0033
ENCODING 51
SWIDTH 1332 0
DWIDTH 16 0
BBX 16 28 0 -8
BITMAP
0000
0000
0000
0000
3FF0
3FF0
F03C
F03C
003C
003C
003C
003C
0FF0
0FF0
003C
003C
003C
003C
003C
003C
F03C
F03C
3FF0
3FF0
0000
0000
0000
0000
ENDCHAR
STARTCHAR u016A
ENCODING 362
SWIDTH 1332 0
DWIDTH 16 0
BBX 16 28 0 -8
BITMAP
3FF0
3FF0
0000
0000
F03C
F03C
F03C
F03C
F03C
F03C
F03C
F03C
F03C
F03C
F03C
F03C
F03C
F03C
F03C
F03C
F03C
F03C
3FF0
3FF0
0000
0000
0000
0000
ENDCHAR
STARTCHAR u0128
ENCODING 296
SWIDTH 1332 0
DWIDTH 16 0
BBX 16 28 0 -8
BITMAP
3F3C
3F3C
F3F0
F3F0
0000
0000
0FF0
0FF0
03C0
03C0
03C0
03C0
03C0
03C0
03C0
03C0
03C0
03C0
03C0
03C0
03C0
03C0
0FF0
0FF0
0000
0000
0000
0000
ENDCHAR
STARTCHAR u0109
ENCODING 265
SWIDTH 1332 0
DWIDTH 16 0
BBX 16 28 0 -8
BITMAP
0000
0000
0300
0300
0FC0
0FC0
3CF0
3CF0
0000
0000
3FF0
3FF0
F03C
F03C
F000
F000
F000
F000
F000
F000
F03C
F03C
3FF0
3FF0
0000
0000
0000
0000
ENDCHAR
STARTCHAR u013D
ENCODING 317
SWIDTH 1332 0
DWIDTH 16 0
BBX 16 28 0 -8
BITMAP
F3C0
F3C0
3F00
3F00
0000
0000
FF00
FF00
3C00
3C00
3C00
3C00
3C00
3C00
3C00
3C00
3C00
3C00
3C0C
3C0C
3C3C
3C3C
FFFC
FFFC
0000
0000
0000
0000
ENDCHAR
STARTCHAR u02C7
ENCODING 711
SWIDTH 1332 0
DWIDTH 16 0
BBX 16 28 0 -8
BITMAP
0000
0000
3CF0
3CF0
0FC0
0FC0
0000
0000
0000
0000
0000
0000
0000
0000
0000
0000
0000
0000
0000
0000
0000
0000
0000
0000
0000
0000
0000
0000
ENDCHAR
STARTCHAR u00C8
ENCODING 200
SWIDTH 1332 0
DWIDTH 16 0
BBX 16 28 0 -8
BITMAP
0000
0000
3C00
3C00
0F00
0F00
0000
0000
FFFC
FFFC
3C3C
3C3C
3C0C
3C0C
3FC0
3FC0
3C00
3C00
3C00
3C00
3C3C
3C3C
FFFC
FFFC
0000
0000
0000
0000
ENDCHAR
STARTCHAR u25CB
ENCODING 9675
SWIDTH 1332 0
DWIDTH 16 0
BBX 16 28 0 -8
BITMAP
0000
0000
0000
0000
0000
0000
0000
0000
0000
0000
0FF0
0FF0
3C3C
3C3C
300C
300C
300C
300C
3C3C
3C3C
0FF0
0FF0
0000
0000
0000
0000
0000
0000
ENDCHAR
STARTCHAR u016E
ENCODING 366
SWIDTH 1332 0
DWIDTH 16 0
BBX 16 28 0 -8
BITMAP
0FC0
0FC0
3CF0
3CF0
0FC0
0FC0
F03C
F03C
F03C
F03C
F03C
F03C
F03C
F03C
F03C
F03C
F03C
F03C
F03C
F03C
F03C
F03C
3FF0
3FF0
0000
0000
0000
0000
ENDCHAR
STARTCHAR u007D
ENCODING 125
SWIDTH 1332 0
DWIDTH 16 0
BBX 16 28 0 -8
BITMAP
0000
0000
0000
0000
3F00
3F00
03C0
03C0
03C0
03C0
03C0
03C0
00FC
00FC
03C0
03C0
03C0
03C0
03C0
03C0
03C0
03C0
3F00
3F00
0000
0000
0000
0000
ENDCHAR
STARTCHAR u002C
ENCODING 44
SWIDTH 1332 0
DWIDTH 16 0
BBX 16 28 0 -8
BITMAP
0000
0000
0000
0000
0000
0000
0000
0000
0000
0000
0000
0000
0000
0000
0000
0000
0000
0000
03C0
03C0
03C0
03C0
03C0
03C0
0F00
0F00
0000
0000
ENDCHAR
STARTCHAR u0110
ENCODING 272
SWIDTH 1332 0
DWIDTH 16 0
BBX 16 28 0 -8
BITMAP
0000
0000
0000
0000
FFC0
FFC0
3CF0
3CF0
3C3C
3C3C
3C3C
3C3C
FF3C
FF3C
FF3C
FF3C
3C3C
3C3C
3C3C
3C3C
3CF0
3CF0
FFC0
FFC0
0000
0000
0000
0000
ENDCHAR
STARTCHAR u012A
ENCODING 298
SWIDTH 1332 0
DWIDTH 16 0
BBX 16 28 0 -8
BITMAP
0FF0
0FF0
0000
0000
0FF0
0FF0
03C0
03C0
03C0
03C0
03C0
03C0
03C0
03C0
03C0
03C0
03C0
03C0
03C0
03C0
03C0
03C0
0FF0
0FF0
0000
0000
0000
0000
ENDCHAR
STARTCHAR u005F
ENCODING 95
SWIDTH 1332 0
DWIDTH 16 0
BBX 16 28 0 -8
BITMAP
0000
0000
0000
0000
0000
0000
0000
0000
0000
0000
0000
0000
0000
0000
0000
0000
0000
0000
0000
0000
0000
0000
0000
0000
0000
0000
FFFF
FFFF
ENDCHAR
STARTCHAR u266C
ENCODING 9836
SWIDTH 1332 0
DWIDTH 16 0
BBX 16 28 0 -8
BITMAP
0000
0000
0000
0000
3FFC
3FFC
3C3C
3C3C
3FFC
3FFC
3C3C
3C3C
3C3C
3C3C
3C3C
3C3C
3C3C
3C3C
3CFC
3CFC
FCFC
FCFC
FCF0
FCF0
F000
F000
0000
0000
ENDCHAR
STARTCHAR u0139
ENCODING 313
SWIDTH 1332 0
DWIDTH 16 0
BBX 16 28 0 -8
BITMAP
0000
0000
0000
0000
FF3C
FF3C
3CF0
3CF0
3C00
3C00
3C00
3C00
3C00
3C00
3C00
3C00
3C00
3C00
3C0C
3C0C
3C3C
3C3C
FFFC
FFFC
0000
0000
0000
0000
ENDCHAR
STARTCHAR u006D
ENCODING 109
SWIDTH 1332 0
DWIDTH 16 0
BBX 16 28 0 -8
BITMAP
0000
0000
0000
0000
0000
0000
0000
0000
0000
0000
FCF0
FCF0
FFFC
FFFC
F33C
F33C
F33C
F33C
F33C
F33C
F33C
F33C
F03C
F03C
0000
0000
0000
0000
ENDCHAR
STARTCHAR u00E7
ENCODING 231
SWIDTH 1332 0
DWIDTH 16 0
BBX 16 28 0 -8
BITMAP
0000
0000
0000
0000
0000
0000
0000
0000
0000
0000
0FF0
0FF0
3C3C
3C3C
3C00
3C00
3C00
3C00
3C3C
3C3C
0FF0
0FF0
00F0
00F0
003C
003C
0FF0
0FF0
ENDCHAR
STARTCHAR u00F3
ENCODING 243
SWIDTH 1332 0
DWIDTH 16 0
BBX 16 28 0 -8
BITMAP
0000
0000
03C0
03C0
0F00
0F00
3C00
3C00
0000
0000
3FF0
3FF0
F03C
F03C
F03C
F03C
F03C
F03C
F03C
F03C
F03C
F03C
3FF0
3FF0
0000
0000
0000
0000
ENDCHAR
STARTCHAR u2666
ENCODING 9830
SWIDTH 1332 0
DWIDTH 16 0
BBX 16 28 0 -8
BITMAP
0000
0000
0000
0000
0000
0000
0000
0000
0300
0300
0FC0
0FC0
3FF0
3FF0
FFFC
FFFC
3FF0
3FF0
0FC0
0FC0
0300
0300
0000
0000
0000
0000
0000
0000
ENDCHAR
STARTCHAR u263C
ENCODING 9788
SWIDTH 1332 0
DWIDTH 16 0
BBX 16 28 0 -8
BITMAP
0000
0000
0000
0000
0000
0000
03C0
03C0
03C0
03C0
F3CF
F3CF
0FF0
0FF0
FC3F
FC3F
0FF0
0FF0
F3CF
F3CF
03C0
03C0
03C0
03C0
0000
0000
0000
0000
ENDCHAR
STARTCHAR u0157
ENCODING 343
SWIDTH 1332 0
DWIDTH 16 0
BBX 16 28 0 -8
BITMAP
0000
0000
0000
0000
0000
0000
0000
0000
0000
0000
F3F0
F3F0
3F3C
3F3C
3C3C
3C3C
3C00
3C00
3C00
3C00
3C00
3C00
FF00
FF00
0F00
0F00
FC00
FC00
ENDCHAR
STARTCHAR u011F
ENCODING 287
SWIDTH 1332 0
DWIDTH 16 0
BBX 16 28 0 -8
BITMAP
0000
0000
0000
0000
F03C
F03C
3FF0
3FF0
0000
0000
3F3C
3F3C
F0F0
F0F0
F0F0
F0F0
F0F0
F0F0
F0F0
F0F0
3FF0
3FF0
00F0
00F0
F0F0
F0F0
3FC0
3FC0
ENDCHAR
STARTCHAR u004E
ENCODING 78
SWIDTH 1332 0
DWIDTH 16 0
BBX 16 28 0 -8
BITMAP
0000
0000
0000
0000
F03C
F03C
FC3C
FC3C
FF3C
FF3C
FFFC
FFFC
F3FC
F3FC
F0FC
F0FC
F03C
F03C
F03C
F03C
F03C
F03C
F03C
F03C
0000
0000
0000
0000
ENDCHAR
STARTCHAR u0126
ENCODING 294
SWIDTH 1332 0
DWIDTH 16 0
BBX 16 28 0 -8
BITMAP
0000
0000
0000
0000
3C3C
3C3C
FFFF
FFFF
3C3C
3C3C
3C3C
3C3C
3FFC
3FFC
3C3C
3C3C
3C3C
3C3C
3C3C
3C3C
3C3C
3C3C
3C3C
3C3C
0000
0000
0000
0000
ENDCHAR
STARTCHAR u015D
ENCODING 349
SWIDTH 1332 0
DWIDTH 16 0
BBX 16 28 0 -8
BITMAP
0000
0000
0300
0300
0FC0
0FC0
3CF0
3CF0
0000
0000
3FF0
3FF0
F03C
F03C
3C00
3C00
0FC0
0FC0
00F0
00F0
F03C
F03C
3FF0
3FF0
0000
0000
0000
0000
ENDCHAR
STARTCHAR u006A
ENCODING 106
SWIDTH 1332 0
DWIDTH 16 0
BBX 16 28 0 -8
BITMAP
0000
0000
0000
0000
003C
003C
003C
003C
0000
0000
00FC
00FC
003C
003C
003C
003C
003C
003C
003C
003C
003C
003C
3C3C
3C3C
3C3C
3C3C
0FF0
0FF0
ENDCHAR
STARTCHAR u0113
ENCODING 275
SWIDTH 1332 0
DWIDTH 16 0
BBX 16 28 0 -8
BITMAP
0000
0000
0000
0000
0000
0000
3FF0
3FF0
0000
0000
3FF0
3FF0
F03C
F03C
FFFC
FFFC
F000
F000
F000
F000
F03C
F03C
3FF0
3FF0
0000
0000
0000
0000
ENDCHAR
STARTCHAR u0041
ENCODING 65
SWIDTH 1332 0
DWIDTH 16 0
BBX 16 28 0 -8
BITMAP
0000
0000
0000
0000
0300
0300
0FC0
0FC0
3CF0
3CF0
F03C
F03C
F03C
F03C
FFFC
FFFC
F03C
F03C
F03C
F03C
F03C
F03C
F03C
F03C
0000
0000
0000
0000
ENDCHAR
STARTCHAR u00C5
ENCODING 197
SWIDTH 1332 0
DWIDTH 16 0
BBX 16 28 0 -8
BITMAP
0FC0
0FC0
3CF0
3CF0
0FC0
0FC0
0300
0300
0FC0
0FC0
3CF0
3CF0
F03C
F03C
F03C
F03C
FFFC
FFFC
F03C
F03C
F03C
F03C
F03C
F03C
0000
0000
0000
0000
ENDCHAR
STARTCHAR u00CB
ENCODING 203
SWIDTH 1332 0
DWIDTH 16 0
BBX 16 28 0 -8
BITMAP
0000
0000
3CF0
3CF0
0000
0000
FFFC
FFFC
3C3C
3C3C
3C0C
3C0C
3CC0
3CC0
3FC0
3FC0
3CC0
3CC0
3C0C
3C0C
3C3C
3C3C
FFFC
FFFC
0000
0000
0000
0000
ENDCHAR
STARTCHAR u0105
ENCODING 261
SWIDTH 1332 0
DWIDTH 16 0
BBX 16 28 0 -8
BITMAP
0000
0000
0000
0000
0000
0000
0000
0000
0000
0000
3FC0
3FC0
00F0
00F0
3FF0
3FF0
F0F0
F0F0
F0F0
F0F0
F0F0
F0F0
3F3C
3F3C
00F0
00F0
003C
003C
ENDCHAR
STARTCHAR u2193
ENCODING 8595
SWIDTH 1332 0
DWIDTH 16 0
BBX 16 28 0 -8
BITMAP
0000
0000
0000
0000
03C0
03C0
03C0
03C0
03C0
03C0
03C0
03C0
03C0
03C0
03C0
03C0
03C0
03C0
3FFC
3FFC
0FF0
0FF0
03C0
03C0
0000
0000
0000
0000
ENDCHAR
STARTCHAR u0051
ENCODING 81
SWIDTH 1332 0
DWIDTH 16 0
BBX 16 28 0 -8
BITMAP
0000
0000
0000
0000
3FF0
3FF0
F03C
F03C
F03C
F03C
F03C
F03C
F03C
F03C
F03C
F03C
F03C
F03C
F33C
F33C
F3FC
F3FC
3FF0
3FF0
00F0
00F0
00FC
00FC
ENDCHAR
STARTCHAR u003C
ENCODING 60
SWIDTH 1332 0
DWIDTH 16 0
BBX 16 28 0 -8
BITMAP
0000
0000
0000
0000
0000
0000
003C
003C
00F0
00F0
03C0
03C0
0F00
0F00
3C00
3C00
0F00
0F00
03C0
03C0
00F0
00F0
003C
003C
0000
0000
0000
0000
ENDCHAR
STARTCHAR u0141
ENCODING 321
SWIDTH 1332 0
DWIDTH 16 0
BBX 16 28 0 -8
BITMAP
0000
0000
0000
0000
3FC0
3FC0
0F00
0F00
0FF0
0FF0
0FC0
0FC0
0F00
0F00
3F00
3F00
FF00
FF00
CF0C
CF0C
0F3C
0F3C
3FFC
3FFC
0000
0000
0000
0000
ENDCHAR
STARTCHAR u0056
ENCODING 86
SWIDTH 1332 0
DWIDTH 16 0
BBX 16 28 0 -8
BITMAP
0000
0000
0000
0000
F03C
F03C
F03C
F03C
F03C
F03C
F03C
F03C
F03C
F03C
F03C
F03C
F03C
F03C
3CF0
3CF0
0FC0
0FC0
0300
0300
0000
0000
0000
0000
ENDCHAR
STARTCHAR u011C
ENCODING 284
SWIDTH 1332 0
DWIDTH 16 0
BBX 16 28 0 -8
BITMAP
03F0
03F0
0F3C
0F3C
0000
0000
0FF0
0FF0
3C3C
3C3C
F00C
F00C
F000
F000
F3FC
F3FC
F03C
F03C
F03C
F03C
3C3C
3C3C
0FCC
0FCC
0000
0000
0000
0000
ENDCHAR
STARTCHAR u00F7
ENCODING 247
SWIDTH 1332 0
DWIDTH 16 0
BBX 16 28 0 -8
BITMAP
0000
0000
0000
0000
0000
0000
0000
0000
03C0
03C0
03C0
03C0
0000
0000
3FFC
3FFC
0000
0000
03C0
03C0
03C0
03C0
0000
0000
0000
0000
0000
0000
ENDCHAR
STARTCHAR u0173
ENCODING 371
SWIDTH 1332 0
DWIDTH 16 0
BBX 16 28 0 -8
BITMAP
0000
0000
0000
0000
0000
0000
0000
0000
0000
0000
F0F0
F0F0
F0F0
F0F0
F0F0
F0F0
F0F0
F0F0
F0F0
F0F0
F0F0
F0F0
3F3C
3F3C
0F00
0F00
03F0
03F0
ENDCHAR
STARTCHAR u00CC
ENCODING 204
SWIDTH 1332 0
DWIDTH 16 0
BBX 16 28 0 -8
BITMAP
0F00
0F00
03C0
03C0
0000
0000
0FF0
0FF0
03C0
03C0
03C0
03C0
03C0
03C0
03C0
03C0
03C0
03C0
03C0
03C0
03C0
03C0
0FF0
0FF0
0000
0000
0000
0000
ENDCHAR
STARTCHAR u2015
ENCODING 8213
SWIDTH 1332 0
DWIDTH 16 0
BBX 16 28 0 -8
BITMAP
0000
0000
0000
0000
0000
0000
0000
0000
0000
0000
0000
0000
0000
0000
FFFF
FFFF
0000
0000
0000
0000
0000
0000
0000
0000
0000
0000
0000
0000
ENDCHAR
STARTCHAR u0121
ENCODING 289
SWIDTH 1332 0
DWIDTH 16 0
BBX 16 28 0 -8
BITMAP
0000
0000
0000
0000
03C0
03C0
03C0
03C0
0000
0000
3F3C
3F3C
F0F0
F0F0
F0F0
F0F0
F0F0
F0F0
F0F0
F0F0
3FF0
3FF0
00F0
00F0
F0F0
F0F0
3FC0
3FC0
ENDCHAR
STARTCHAR u015A
ENCODING 346
SWIDTH 1332 0
DWIDTH 16 0
BBX 16 28 0 -8
BITMAP
00F0
00F0
03C0
03C0
0000
0000
3FF0
3FF0
F03C
F03C
F03C
F03C
3C00
3C00
0FC0
0FC0
00F0
00F0
F03C
F03C
F03C
F03C
3FF0
3FF0
0000
0000
0000
0000
ENDCHAR
STARTCHAR u02D9
ENCODING 729
SWIDTH 1332 0
DWIDTH 16 0
BBX 16 28 0 -8
BITMAP
0000
0000
03C0
03C0
03C0
03C0
0000
0000
0000
0000
0000
0000
0000
0000
0000
0000
0000
0000
0000
0000
0000
0000
0000
0000
0000
0000
0000
0000
ENDCHAR
STARTCHAR u0052
ENCODING 82
SWIDTH 1332 0
DWIDTH 16 0
BBX 16 28 0 -8
BITMAP
0000
0000
0000
0000
FFF0
FFF0
3C3C
3C3C
3C3C
3C3C
3C3C
3C3C
3FF0
3FF0
3CF0
3CF0
3C3C
3C3C
3C3C
3C3C
3C3C
3C3C
FC3C
FC3C
0000
0000
0000
0000
ENDCHAR
STARTCHAR u006E
ENCODING 110
SWIDTH 1332 0
DWIDTH 16 0
BBX 16 28 0 -8
BITMAP
0000
0000
0000
0000
0000
0000
0000
0000
0000
0000
F3F0
F3F0
3C3C
3C3C
3C3C
3C3C
3C3C
3C3C
3C3C
3C3C
3C3C
3C3C
3C3C
3C3C
0000
0000
0000
0000
ENDCHAR
STARTCHAR u014D
ENCODING 333
SWIDTH 1332 0
DWIDTH 16 0
BBX 16 28 0 -8
BITMAP
0000
0000
0000
0000
0000
0000
3FF0
3FF0
0000
0000
3FF0
3FF0
F03C
F03C
F03C
F03C
F03C
F03C
F03C
F03C
F03C
F03C
3FF0
3FF0
0000
0000
0000
0000
ENDCHAR
STARTCHAR u25C4
ENCODING 9668
SWIDTH 1332 0
DWIDTH 16 0
BBX 16 28 0 -8
BITMAP
0000
0000
000C
000C
003C
003C
00FC
00FC
03FC
03FC
0FFC
0FFC
FFFC
FFFC
0FFC
0FFC
03FC
03FC
00FC
00FC
003C
003C
000C
000C
0000
0000
0000
0000
ENDCHAR
STARTCHAR u2663
ENCODING 9827
SWIDTH 1332 0
DWIDTH 16 0
BBX 16 28 0 -8
BITMAP
0000
0000
0000
0000
0000
0000
03C0
03C0
0FF0
0FF0
0FF0
0FF0
FC3F
FC3F
FC3F
FC3F
FC3F
FC3F
03C0
03C0
03C0
03C0
0FF0
0FF0
0000
0000
0000
0000
ENDCHAR
STARTCHAR u00E4
ENCODING 228
SWIDTH 1332 0
DWIDTH 16 0
BBX 16 28 0 -8
BITMAP
0000
0000
0000
0000
F0F0
F0F0
0000
0000
0000
0000
3FC0
3FC0
00F0
00F0
3FF0
3FF0
F0F0
F0F0
F0F0
F0F0
F0F0
F0F0
3F3C
3F3C
0000
0000
0000
0000
ENDCHAR
STARTCHAR u0143
ENCODING 323
SWIDTH 1332 0
DWIDTH 16 0
BBX 16 28 0 -8
BITMAP
0000
0000
0000
0000
FF00
FF00
3C00
3C00
3C00
3C00
3C00
3C00
3C00
3C00
3C00
3C00
3C00
3C00
3C0C
3C0C
3C3C
3C3C
FFFC
FFFC
03C0
03C0
3F00
3F00
ENDCHAR
STARTCHAR u010C
ENCODING 268
SWIDTH 1332 0
DWIDTH 16 0
BBX 16 28 0 -8
BITMAP
3CF0
3CF0
0FC0
0FC0
0000
0000
0FF0
0FF0
3C3C
3C3C
F00C
F00C
F000
F000
F000
F000
F000
F000
F00C
F00C
3C3C
3C3C
0FF0
0FF0
0000
0000
0000
0000
ENDCHAR
STARTCHAR u0045
ENCODING 69
SWIDTH 1332 0
DWIDTH 16 0
BBX 16 28 0 -8
BITMAP
0000
0000
0000
0000
FFFC
FFFC
3C3C
3C3C
3C0C
3C0C
3CC0
3CC0
3FC0
3FC0
3CC0
3CC0
3C0C
3C0C
3C0C
3C0C
3C3C
3C3C
FFFC
FFFC
0000
0000
0000
0000
ENDCHAR
STARTCHAR u0070
ENCODING 112
SWIDTH 1332 0
DWIDTH 16 0
BBX 16 28 0 -8
BITMAP
0000
0000
0000
0000
0000
0000
0000
0000
0000
0000
F3F0
F3F0
3C3C
3C3C
3C3C
3C3C
3C3C
3C3C
3C3C
3C3C
3FF0
3FF0
3C00
3C00
3C00
3C00
FF00
FF00
ENDCHAR
STARTCHAR u0159
ENCODING 345
SWIDTH 1332 0
DWIDTH 16 0
BBX 16 28 0 -8
BITMAP
0000
0000
0000
0000
3CF0
3CF0
0FC0
0FC0
0000
0000
F3F0
F3F0
3F3C
3F3C
3C3C
3C3C
3C00
3C00
3C00
3C00
3C00
3C00
FF00
FF00
0000
0000
0000
0000
ENDCHAR
STARTCHAR u2642
ENCODING 9794
SWIDTH 1332 0
DWIDTH 16 0
BBX 16 28 0 -8
BITMAP
0000
0000
0000
0000
03FC
03FC
00FC
00FC
03CC
03CC
0F0C
0F0C
3FC0
3FC0
F0F0
F0F0
F0F0
F0F0
F0F0
F0F0
F0F0
F0F0
3FC0
3FC0
0000
0000
0000
0000
ENDCHAR
STARTCHAR u00E0
ENCODING 224
SWIDTH 1332 0
DWIDTH 16 0
BBX 16 28 0 -8
BITMAP
0000
0000
3C00
3C00
0F00
0F00
03C0
03C0
0000
0000
3FC0
3FC0
00F0
00F0
3FF0
3FF0
F0F0
F0F0
F0F0
F0F0
F0F0
F0F0
3F3C
3F3C
0000
0000
0000
0000
ENDCHAR
STARTCHAR u00DF
ENCODING 223
SWIDTH 1332 0
DWIDTH 16 0
BBX 16 28 0 -8
BITMAP
0000
0000
0000
0000
3FC0
3FC0
F0F0
F0F0
F0F0
F0F0
F0F0
F0F0
F3C0
F3C0
F0F0
F0F0
F03C
F03C
F03C
F03C
F03C
F03C
F0F0
F0F0
0000
0000
0000
0000
ENDCHAR
STARTCHAR u011A
ENCODING 282
SWIDTH 1332 0
DWIDTH 16 0
BBX 16 28 0 -8
BITMAP
3CF0
3CF0
0FC0
0FC0
0000
0000
FFFC
FFFC
3C3C
3C3C
3C0C
3C0C
3CC0
3CC0
3FC0
3FC0
3CC0
3CC0
3C0C
3C0C
3C3C
3C3C
FFFC
FFFC
0000
0000
0000
0000
ENDCHAR
STARTCHAR u0106
ENCODING 262
SWIDTH 1332 0
DWIDTH 16 0
BBX 16 28 0 -8
BITMAP
0000
0000
00F0
00F0
03C0
03C0
0000
0000
0FF0
0FF0
3C3C
3C3C
F00C
F00C
F000
F000
F000
F000
F00C
F00C
3C3C
3C3C
0FF0
0FF0
0000
0000
0000
0000
ENDCHAR
STARTCHAR u004F
ENCODING 79
SWIDTH 1332 0
DWIDTH 16 0
BBX 16 28 0 -8
BITMAP
0000
0000
0000
0000
3FF0
3FF0
F03C
F03C
F03C
F03C
F03C
F03C
F03C
F03C
F03C
F03C
F03C
F03C
F03C
F03C
F03C
F03C
3FF0
3FF0
0000
0000
0000
0000
ENDCHAR
STARTCHAR u0079
ENCODING 121
SWIDTH 1332 0
DWIDTH 16 0
BBX 16 28 0 -8
BITMAP
0000
0000
0000
0000
0000
0000
0000
0000
0000
0000
F03C
F03C
F03C
F03C
F03C
F03C
F03C
F03C
F03C
F03C
3FFC
3FFC
003C
003C
00F0
00F0
FFC0
FFC0
ENDCHAR
STARTCHAR u00D4
ENCODING 212
SWIDTH 1332 0
DWIDTH 16 0
BBX 16 28 0 -8
BITMAP
0FC0
0FC0
3CF0
3CF0
0000
0000
3FF0
3FF0
F03C
F03C
F03C
F03C
F03C
F03C
F03C
F03C
F03C
F03C
F03C
F03C
F03C
F03C
3FF0
3FF0
0000
0000
0000
0000
ENDCHAR
STARTCHAR u0160
ENCODING 352
SWIDTH 1332 0
DWIDTH 16 0
BBX 16 28 0 -8
BITMAP
3CF0
3CF0
0FC0
0FC0
0000
0000
3FF0
3FF0
F03C
F03C
F03C
F03C
3C00
3C00
0FC0
0FC0
00F0
00F0
003C
003C
F03C
F03C
3FF0
3FF0
0000
0000
0000
0000
ENDCHAR
STARTCHAR u0158
ENCODING 344
SWIDTH 1332 0
DWIDTH 16 0
BBX 16 28 0 -8
BITMAP
3CF0
3CF0
0FC0
0FC0
0000
0000
FFF0
FFF0
3C3C
3C3C
3C3C
3C3C
3C3C
3C3C
3FF0
3FF0
3CF0
3CF0
3C3C
3C3C
3C3C
3C3C
FC3C
FC3C
0000
0000
0000
0000
ENDCHAR
STARTCHAR u25B2
ENCODING 9650
SWIDTH 1332 0
DWIDTH 16 0
BBX 16 28 0 -8
BITMAP
0000
0000
0000
0000
0000
0000
0000
0000
0300
0300
0FC0
0FC0
0FC0
0FC0
3FF0
3FF0
3FF0
3FF0
FFFC
FFFC
FFFC
FFFC
0000
0000
0000
0000
0000
0000
ENDCHAR
STARTCHAR u007E
ENCODING 126
SWIDTH 1332 0
DWIDTH 16 0
BBX 16 28 0 -8
BITMAP
0000
0000
0000
0000
3F3C
3F3C
F3F0
F3F0
0000
0000
0000
0000
0000
0000
0000
0000
0000
0000
0000
0000
0000
0000
0000
0000
0000
0000
0000
0000
ENDCHAR
STARTCHAR u00EE
ENCODING 238
SWIDTH 1332 0
DWIDTH 16 0
BBX 16 28 0 -8
BITMAP
0000
0000
03C0
03C0
0FF0
0FF0
3C3C
3C3C
0000
0000
0FC0
0FC0
03C0
03C0
03C0
03C0
03C0
03C0
03C0
03C0
03C0
03C0
0FF0
0FF0
0000
0000
0000
0000
ENDCHAR
STARTCHAR u00FB
ENCODING 251
SWIDTH 1332 0
DWIDTH 16 0
BBX 16 28 0 -8
BITMAP
0000
0000
0300
0300
0FC0
0FC0
3CF0
3CF0
0000
0000
F0F0
F0F0
F0F0
F0F0
F0F0
F0F0
F0F0
F0F0
F0F0
F0F0
F0F0
F0F0
3F3C
3F3C
0000
0000
0000
0000
ENDCHAR
STARTCHAR u0171
ENCODING 369
SWIDTH 1332 0
DWIDTH 16 0
BBX 16 28 0 -8
BITMAP
0000
0000
0000
0000
3CF0
3CF0
F3C0
F3C0
0000
0000
F0F0
F0F0
F0F0
F0F0
F0F0
F0F0
F0F0
F0F0
F0F0
F0F0
F0F0
F0F0
3F3C
3F3C
0000
0000
0000
0000
ENDCHAR
STARTCHAR u00FD
ENCODING 253
SWIDTH 1332 0
DWIDTH 16 0
BBX 16 28 0 -8
BITMAP
0000
0000
00F0
00F0
03C0
03C0
0F00
0F00
0000
0000
F03C
F03C
F03C
F03C
F03C
F03C
F03C
F03C
F03C
F03C
3FFC
3FFC
003C
003C
00F0
00F0
FFC0
FFC0
ENDCHAR
STARTCHAR u0117
ENCODING 279
SWIDTH 1332 0
DWIDTH 16 0
BBX 16 28 0 -8
BITMAP
0000
0000
0000
0000
03C0
03C0
03C0
03C0
0000
0000
3FF0
3FF0
F03C
F03C
FFFC
FFFC
F000
F000
F000
F000
F03C
F03C
3FF0
3FF0
0000
0000
0000
0000
ENDCHAR
STARTCHAR u00B0
ENCODING 176
SWIDTH 1332 0
DWIDTH 16 0
BBX 16 28 0 -8
BITMAP
0000
0000
0FC0
0FC0
3CF0
3CF0
3CF0
3CF0
0FC0
0FC0
0000
0000
0000
0000
0000
0000
0000
0000
0000
0000
0000
0000
0000
0000
0000
0000
0000
0000
ENDCHAR
STARTCHAR u00D1
ENCODING 209
SWIDTH 1332 0
DWIDTH 16 0
BBX 16 28 0 -8
BITMAP
3F3C
3F3C
F3F0
F3F0
0000
0000
F03C
F03C
FC3C
FC3C
FF3C
FF3C
FFFC
FFFC
F3FC
F3FC
F0FC
F0FC
F03C
F03C
F03C
F03C
F03C
F03C
0000
0000
0000
0000
ENDCHAR
STARTCHAR u00D8
ENCODING 216
SWIDTH 1332 0
DWIDTH 16 0
BBX 16 28 0 -8
BITMAP
0000
0000
0030
0030
3FF0
3FF0
F0FC
F0FC
F0FC
F0FC
F33C
F33C
F33C
F33C
F33C
F33C
F33C
F33C
FC3C
FC3C
FC3C
FC3C
3FF0
3FF0
3000
3000
0000
0000
ENDCHAR
STARTCHAR u0100
ENCODING 256
SWIDTH 1332 0
DWIDTH 16 0
BBX 16 28 0 -8
BITMAP
3FF0
3FF0
0000
0000
0300
0300
0FC0
0FC0
3CF0
3CF0
F03C
F03C
F03C
F03C
FFFC
FFFC
F03C
F03C
F03C
F03C
F03C
F03C
F03C
F03C
0000
0000
0000
0000
ENDCHAR
STARTCHAR u25AC
ENCODING 9644
SWIDTH 1332 0
DWIDTH 16 0
BBX 16 28 0 -8
BITMAP
0000
0000
0000
0000
0000
0000
0000
0000
0000
0000
0000
0000
0000
0000
0000
0000
FFFC
FFFC
FFFC
FFFC
FFFC
FFFC
FFFC
FFFC
0000
0000
0000
0000
ENDCHAR
STARTCHAR u0165
ENCODING 357
SWIDTH 1332 0
DWIDTH 16 0
BBX 16 28 0 -8
BITMAP
3CF0
3CF0
0FC0
0FC0
0000
0000
0300
0300
0F00
0F00
0F00
0F00
FFF0
FFF0
0F00
0F00
0F00
0F00
0F00
0F00
0F3C
0F3C
03F0
03F0
0000
0000
0000
0000
ENDCHAR
STARTCHAR u0075
ENCODING 117
SWIDTH 1332 0
DWIDTH 16 0
BBX 16 28 0 -8
BITMAP
0000
0000
0000
0000
0000
0000
0000
0000
0000
0000
F0F0
F0F0
F0F0
F0F0
F0F0
F0F0
F0F0
F0F0
F0F0
F0F0
F0F0
F0F0
3F3C
3F3C
0000
0000
0000
0000
ENDCHAR
STARTCHAR u0021
ENCODING 33
SWIDTH 1332 0
DWIDTH 16 0
BBX 16 28 0 -8
BITMAP
0000
0000
0000
0000
03C0
03C0
0FF0
0FF0
0FF0
0FF0
0FF0
0FF0
03C0
03C0
03C0
03C0
03C0
03C0
0000
0000
03C0
03C0
03C0
03C0
0000
0000
0000
0000
ENDCHAR
STARTCHAR u003F
ENCODING 63
SWIDTH 1332 0
DWIDTH 16 0
BBX 16 28 0 -8
BITMAP
0000
0000
0000
0000
3FF0
3FF0
F03C
F03C
F03C
F03C
00F0
00F0
03C0
03C0
03C0
03C0
03C0
03C0
0000
0000
03C0
03C0
03C0
03C0
0000
0000
0000
0000
ENDCHAR
STARTCHAR u00E3
ENCODING 227
SWIDTH 1332 0
DWIDTH 16 0
BBX 16 28 0 -8
BITMAP
0000
0000
0000
0000
3F3C
3F3C
F3F0
F3F0
0000
0000
3FC0
3FC0
00F0
00F0
3FF0
3FF0
F0F0
F0F0
F0F0
F0F0
F0F0
F0F0
3F3C
3F3C
0000
0000
0000
0000
ENDCHAR
STARTCHAR u0050
ENCODING 80
SWIDTH 1332 0
DWIDTH 16 0
BBX 16 28 0 -8
BITMAP
0000
0000
0000
0000
FFF0
FFF0
3C3C
3C3C
3C3C
3C3C
3C3C
3C3C
3FF0
3FF0
3C00
3C00
3C00
3C00
3C00
3C00
3C00
3C00
FF00
FF00
0000
0000
0000
0000
ENDCHAR
STARTCHAR u0150
ENCODING 336
SWIDTH 1332 0
DWIDTH 16 0
BBX 16 28 0 -8
BITMAP
0000
0000
0F3C
0F3C
3CF0
3CF0
0000
0000
3FF0
3FF0
F03C
F03C
F03C
F03C
F03C
F03C
F03C
F03C
F03C
F03C
F03C
F03C
3FF0
3FF0
0000
0000
0000
0000
ENDCHAR
STARTCHAR u0063
ENCODING 99
SWIDTH 1332 0
DWIDTH 16 0
BBX 16 28 0 -8
BITMAP
0000
0000
0000
0000
0000
0000
0000
0000
0000
0000
3FF0
3FF0
F03C
F03C
F000
F000
F000
F000
F000
F000
F03C
F03C
3FF0
3FF0
0000
0000
0000
0000
ENDCHAR
STARTCHAR u0048
ENCODING 72
SWIDTH 1332 0
DWIDTH 16 0
BBX 16 28 0 -8
BITMAP
0000
0000
0000
0000
F03C
F03C
F03C
F03C
F03C
F03C
F03C
F03C
FFFC
FFFC
F03C
F03C
F03C
F03C
F03C
F03C
F03C
F03C
F03C
F03C
0000
0000
0000
0000
ENDCHAR
STARTCHAR u00B3
ENCODING 179
SWIDTH 1332 0
DWIDTH 16 0
BBX 16 28 0 -8
BITMAP
0000
0000
3FF0
3FF0
003C
003C
0FF0
0FF0
003C
003C
000C
000C
3FF0
3FF0
0000
0000
0000
0000
0000
0000
0000
0000
0000
0000
0000
0000
0000
0000
ENDCHAR
STARTCHAR u25C0
ENCODING 9664
SWIDTH 1332 0
DWIDTH 16 0
BBX 16 28 0 -8
BITMAP
0000
0000
000C
000C
003C
003C
00FC
00FC
03FC
03FC
0FFC
0FFC
FFFC
FFFC
0FFC
0FFC
03FC
03FC
00FC
00FC
003C
003C
000C
000C
0000
0000
0000
0000
ENDCHAR
STARTCHAR u2022
ENCODING 8226
SWIDTH 1332 0
DWIDTH 16 0
BBX 16 28 0 -8
BITMAP
0000
0000
0000
0000
0000
0000
0000
0000
0000
0000
0000
0000
03C0
03C0
0FF0
0FF0
0FF0
0FF0
03C0
03C0
0000
0000
0000
0000
0000
0000
0000
0000
ENDCHAR
STARTCHAR u0108
ENCODING 264
SWIDTH 1332 0
DWIDTH 16 0
BBX 16 28 0 -8
BITMAP
0300
0300
0FC0
0FC0
3CF0
3CF0
0000
0000
0FF0
0FF0
3C3C
3C3C
F00C
F00C
F000
F000
F000
F000
F00C
F00C
3C3C
3C3C
0FF0
0FF0
0000
0000
0000
0000
ENDCHAR
STARTCHAR u0129
ENCODING 297
SWIDTH 1332 0
DWIDTH 16 0
BBX 16 28 0 -8
BITMAP
0000
0000
0000
0000
3F3C
3F3C
F3F0
F3F0
0000
0000
0FC0
0FC0
03C0
03C0
03C0
03C0
03C0
03C0
03C0
03C0
03C0
03C0
0FF0
0FF0
0000
0000
0000
0000
ENDCHAR
STARTCHAR u0167
ENCODING 359
SWIDTH 1332 0
DWIDTH 16 0
BBX 16 28 0 -8
BITMAP
0000
0000
0000
0000
0300
0300
0F00
0F00
0F00
0F00
FFF0
FFF0
0F00
0F00
0FF0
0FF0
3FC0
3FC0
FF00
FF00
0F3C
0F3C
03F0
03F0
0000
0000
0000
0000
ENDCHAR
STARTCHAR u00B6
ENCODING 182
SWIDTH 1332 0
DWIDTH 16 0
BBX 16 28 0 -8
BITMAP
0000
0000
0000
0000
0000
0000
0000
0000
0000
0000
0000
0000
0000
0000
0000
0000
0000
0000
0000
0000
0000
0000
0000
0000
0000
0000
0000
0000
ENDCHAR
STARTCHAR u006C
ENCODING 108
SWIDTH 1332 0
DWIDTH 16 0
BBX 16 28 0 -8
BITMAP
0000
0000
0000
0000
0FC0
0FC0
03C0
03C0
03C0
03C0
03C0
03C0
03C0
03C0
03C0
03C0
03C0
03C0
03C0
03C0
03C0
03C0
0FF0
0FF0
0000
0000
0000
0000
ENDCHAR
STARTCHAR u005C
ENCODING 92
SWIDTH 1332 0
DWIDTH 16 0
BBX 16 28 0 -8
BITMAP
0000
0000
0000
0000
0000
0000
C000
C000
F000
F000
FC00
FC00
3F00
3F00
0FC0
0FC0
03F0
03F0
00FC
00FC
003C
003C
000C
000C
0000
0000
0000
0000
ENDCHAR
STARTCHAR u00E8
ENCODING 232
SWIDTH 1332 0
DWIDTH 16 0
BBX 16 28 0 -8
BITMAP
0000
0000
3C00
3C00
0F00
0F00
03C0
03C0
0000
0000
3FF0
3FF0
F03C
F03C
FFFC
FFFC
F000
F000
F000
F000
F03C
F03C
3FF0
3FF0
0000
0000
0000
0000
ENDCHAR
STARTCHAR u00E1
ENCODING 225
SWIDTH 1332 0
DWIDTH 16 0
BBX 16 28 0 -8
BITMAP
0000
0000
03C0
03C0
0F00
0F00
3C00
3C00
0000
0000
3FC0
3FC0
00F0
00F0
3FF0
3FF0
F0F0
F0F0
F0F0
F0F0
F0F0
F0F0
3F3C
3F3C
0000
0000
0000
0000
ENDCHAR
STARTCHAR u014A
ENCODING 330
SWIDTH 1332 0
DWIDTH 16 0
BBX 16 28 0 -8
BITMAP
0000
0000
0000
0000
F3F0
F3F0
FFFC
FFFC
FF3C
FF3C
FC3C
FC3C
F03C
F03C
F03C
F03C
F03C
F03C
F03C
F03C
F03C
F03C
F3F0
F3F0
0000
0000
0000
0000
ENDCHAR
STARTCHAR u00CF
ENCODING 207
SWIDTH 1332 0
DWIDTH 16 0
BBX 16 28 0 -8
BITMAP
0000
0000
3C3C
3C3C
0000
0000
0FF0
0FF0
03C0
03C0
03C0
03C0
03C0
03C0
03C0
03C0
03C0
03C0
03C0
03C0
03C0
03C0
0FF0
0FF0
0000
0000
0000
0000
ENDCHAR
STARTCHAR u0107
ENCODING 263
SWIDTH 1332 0
DWIDTH 16 0
BBX 16 28 0 -8
BITMAP
0000
0000
00F0
00F0
03C0
03C0
0F00
0F00
0000
0000
3FF0
3FF0
F03C
F03C
F000
F000
F000
F000
F000
F000
F03C
F03C
3FF0
3FF0
0000
0000
0000
0000
ENDCHAR
STARTCHAR u00A7
ENCODING 167
SWIDTH 1332 0
DWIDTH 16 0
BBX 16 28 0 -8
BITMAP
0000
0000
3FF0
3FF0
F03C
F03C
3C00
3C00
0FC0
0FC0
3CF0
3CF0
F03C
F03C
F03C
F03C
3CF0
3CF0
0FC0
0FC0
00F0
00F0
F03C
F03C
3FF0
3FF0
0000
0000
ENDCHAR
STARTCHAR u0030
ENCODING 48
SWIDTH 1332 0
DWIDTH 16 0
BBX 16 28 0 -8
BITMAP
0000
0000
0000
0000
0FC0
0FC0
3CF0
3CF0
F03C
F03C
F03C
F03C
F33C
F33C
F33C
F33C
F03C
F03C
F03C
F03C
3CF0
3CF0
0FC0
0FC0
0000
0000
0000
0000
ENDCHAR
STARTCHAR u0168
ENCODING 360
SWIDTH 1332 0
DWIDTH 16 0
BBX 16 28 0 -8
BITMAP
3F3C
3F3C
F3F0
F3F0
0000
0000
F03C
F03C
F03C
F03C
F03C
F03C
F03C
F03C
F03C
F03C
F03C
F03C
F03C
F03C
F03C
F03C
3FF0
3FF0
0000
0000
0000
0000
ENDCHAR
STARTCHAR uFFFD
ENCODING 65533
SWIDTH 1332 0
DWIDTH 16 0
BBX 16 28 0 -8
BITMAP
0000
0000
0000
0000
0000
0000
0000
0000
0000
0000
0000
0000
0000
0000
0000
0000
0000
0000
0000
0000
0000
0000
0000
0000
0000
0000
0000
0000
ENDCHAR
STARTCHAR u0122
ENCODING 290
SWIDTH 1332 0
DWIDTH 16 0
BBX 16 28 0 -8
BITMAP
0000
0000
0000
0000
0FF0
0FF0
3C3C
3C3C
F00C
F00C
F000
F000
F000
F000
F3FC
F3FC
F03C
F03C
F03C
F03C
3C3C
3C3C
0FCC
0FCC
03C0
03C0
3F00
3F00
ENDCHAR
STARTCHAR u007B
ENCODING 123
SWIDTH 1332 0
DWIDTH 16 0
BBX 16 28 0 -8
BITMAP
0000
0000
0000
0000
00FC
00FC
03C0
03C0
03C0
03C0
03C0
03C0
3F00
3F00
03C0
03C0
03C0
03C0
03C0
03C0
03C0
03C0
00FC
00FC
0000
0000
0000
0000
ENDCHAR
STARTCHAR u0032
ENCODING 50
SWIDTH 1332 0
DWIDTH 16 0
BBX 16 28 0 -8
BITMAP
0000
0000
0000
0000
3FF0
3FF0
F03C
F03C
003C
003C
00F0
00F0
03C0
03C0
0F00
0F00
3C00
3C00
F000
F000
F03C
F03C
FFFC
FFFC
0000
0000
0000
0000
ENDCHAR
STARTCHAR u0130
ENCODING 304
SWIDTH 1332 0
DWIDTH 16 0
BBX 16 28 0 -8
BITMAP
03C0
03C0
03C0
03C0
0000
0000
0FF0
0FF0
03C0
03C0
03C0
03C0
03C0
03C0
03C0
03C0
03C0
03C0
03C0
03C0
03C0
03C0
0FF0
0FF0
0000
0000
0000
0000
ENDCHAR
STARTCHAR u00D2
ENCODING 210
SWIDTH 1332 0
DWIDTH 16 0
BBX 16 28 0 -8
BITMAP
0F00
0F00
03C0
03C0
0000
0000
3FF0
3FF0
F03C
F03C
F03C
F03C
F03C
F03C
F03C
F03C
F03C
F03C
F03C
F03C
F03C
F03C
3FF0
3FF0
0000
0000
0000
0000
ENDCHAR
STARTCHAR u2302
ENCODING 8962
SWIDTH 1332 0
DWIDTH 16 0
BBX 16 28 0 -8
BITMAP
0000
0000
0000
0000
0000
0000
0000
0000
0300
0300
0FC0
0FC0
3CF0
3CF0
F03C
F03C
F03C
F03C
F03C
F03C
FFFC
FFFC
0000
0000
0000
0000
0000
0000
ENDCHAR
STARTCHAR u0102
ENCODING 258
SWIDTH 1332 0
DWIDTH 16 0
BBX 16 28 0 -8
BITMAP
F03C
F03C
3FF0
3FF0
0000
0000
0300
0300
0FC0
0FC0
3CF0
3CF0
F03C
F03C
F03C
F03C
FFFC
FFFC
F03C
F03C
F03C
F03C
F03C
F03C
0000
0000
0000
0000
ENDCHAR
STARTCHAR u00AD
ENCODING 173
SWIDTH 1332 0
DWIDTH 16 0
BBX 16 28 0 -8
BITMAP
0000
0000
0000
0000
0000
0000
0000
0000
0000
0000
0000
0000
0000
0000
3FFC
3FFC
0000
0000
0000
0000
0000
0000
0000
0000
0000
0000
0000
0000
ENDCHAR
STARTCHAR u0038
ENCODING 56
SWIDTH 1332 0
DWIDTH 16 0
BBX 16 28 0 -8
BITMAP
0000
0000
0000
0000
3FF0
3FF0
F03C
F03C
F03C
F03C
F03C
F03C
3FF0
3FF0
F03C
F03C
F03C
F03C
F03C
F03C
F03C
F03C
3FF0
3FF0
0000
0000
0000
0000
ENDCHAR
STARTCHAR u0042
ENCODING 66
SWIDTH 1332 0
DWIDTH 16 0
BBX 16 28 0 -8
BITMAP
0000
0000
0000
0000
FFF0
FFF0
3C3C
3C3C
3C3C
3C3C
3C3C
3C3C
3FF0
3FF0
3C3C
3C3C
3C3C
3C3C
3C3C
3C3C
3C3C
3C3C
FFF0
FFF0
0000
0000
0000
0000
ENDCHAR
STARTCHAR u0125
ENCODING 293
SWIDTH 1332 0
DWIDTH 16 0
BBX 16 28 0 -8
BITMAP
03F0
03F0
0F3C
0F3C
0000
0000
FC00
FC00
3C00
3C00
3C00
3C00
3CF0
3CF0
3F3C
3F3C
3C3C
3C3C
3C3C
3C3C
3C3C
3C3C
FC3C
FC3C
0000
0000
0000
0000
ENDCHAR
STARTCHAR u0036
ENCODING 54
SWIDTH 1332 0
DWIDTH 16 0
BBX 16 28 0 -8
BITMAP
0000
0000
0000
0000
0FC0
0FC0
3C00
3C00
F000
F000
F000
F000
FFF0
FFF0
F03C
F03C
F03C
F03C
F03C
F03C
F03C
F03C
3FF0
3FF0
0000
0000
0000
0000
ENDCHAR
STARTCHAR u0112
ENCODING 274
SWIDTH 1332 0
DWIDTH 16 0
BBX 16 28 0 -8
BITMAP
3FF0
3FF0
0000
0000
FFFC
FFFC
3C3C
3C3C
3C0C
3C0C
3CC0
3CC0
3FC0
3FC0
3CC0
3CC0
3C0C
3C0C
3C0C
3C0C
3C3C
3C3C
FFFC
FFFC
0000
0000
0000
0000
ENDCHAR
STARTCHAR u016D
ENCODING 365
SWIDTH 1332 0
DWIDTH 16 0
BBX 16 28 0 -8
BITMAP
0000
0000
0000
0000
F03C
F03C
3FF0
3FF0
0000
0000
F0F0
F0F0
F0F0
F0F0
F0F0
F0F0
F0F0
F0F0
F0F0
F0F0
F0F0
F0F0
3F3C
3F3C
0000
0000
0000
0000
ENDCHAR
STARTCHAR u0046
ENCODING 70
SWIDTH 1332 0
DWIDTH 16 0
BBX 16 28 0 -8
BITMAP
0000
0000
0000
0000
FFFC
FFFC
3C3C
3C3C
3C0C
3C0C
3CC0
3CC0
3FC0
3FC0
3CC0
3CC0
3C00
3C00
3C00
3C00
3C00
3C00
FF00
FF00
0000
0000
0000
0000
ENDCHAR
STARTCHAR u0142
ENCODING 322
SWIDTH 1332 0
DWIDTH 16 0
BBX 16 28 0 -8
BITMAP
0000
0000
0000
0000
0FC0
0FC0
03C0
03C0
03FC
03FC
03F0
03F0
03C0
03C0
0FC0
0FC0
3FC0
3FC0
F3C0
F3C0
03C0
03C0
0FF0
0FF0
0000
0000
0000
0000
ENDCHAR
STARTCHAR u0161
ENCODING 353
SWIDTH 1332 0
DWIDTH 16 0
BBX 16 28 0 -8
BITMAP
0000
0000
0000
0000
3CF0
3CF0
0FC0
0FC0
0000
0000
3FF0
3FF0
F03C
F03C
3C00
3C00
0FC0
0FC0
00F0
00F0
F03C
F03C
3FF0
3FF0
0000
0000
0000
0000
ENDCHAR
STARTCHAR u0058
ENCODING 88
SWIDTH 1332 0
DWIDTH 16 0
BBX 16 28 0 -8
BITMAP
0000
0000
0000
0000
F03C
F03C
F03C
F03C
3CF0
3CF0
3FF0
3FF0
0FC0
0FC0
0FC0
0FC0
3FF0
3FF0
3CF0
3CF0
F03C
F03C
F03C
F03C
0000
0000
0000
0000
ENDCHAR
STARTCHAR u00FC
ENCODING 252
SWIDTH 1332 0
DWIDTH 16 0
BBX 16 28 0 -8
BITMAP
0000
0000
0000
0000
F0F0
F0F0
0000
0000
0000
0000
F0F0
F0F0
F0F0
F0F0
F0F0
F0F0
F0F0
F0F0
F0F0
F0F0
F0F0
F0F0
3F3C
3F3C
0000
0000
0000
0000
ENDCHAR
STARTCHAR u0136
ENCODING 310
SWIDTH 1332 0
DWIDTH 16 0
BBX 16 28 0 -8
BITMAP
0000
0000
0000
0000
FC3C
FC3C
3C3C
3C3C
3C3C
3C3C
3CF0
3CF0
3FC0
3FC0
3FC0
3FC0
3CF0
3CF0
3C3C
3C3C
3C3C
3C3C
FC3C
FC3C
03C0
03C0
3F00
3F00
ENDCHAR
STARTCHAR u004B
ENCODING 75
SWIDTH 1332 0
DWIDTH 16 0
BBX 16 28 0 -8
BITMAP
0000
0000
0000
0000
FC3C
FC3C
3C3C
3C3C
3C3C
3C3C
3CF0
3CF0
3FC0
3FC0
3FC0
3FC0
3CF0
3CF0
3C3C
3C3C
3C3C
3C3C
FC3C
FC3C
0000
0000
0000
0000
ENDCHAR
STARTCHAR u0028
ENCODING 40
SWIDTH 1332 0
DWIDTH 16 0
BBX 16 28 0 -8
BITMAP
0000
0000
0000
0000
00F0
00F0
03C0
03C0
0F00
0F00
0F00
0F00
0F00
0F00
0F00
0F00
0F00
0F00
0F00
0F00
03C0
03C0
00F0
00F0
0000
0000
0000
0000
ENDCHAR
STARTCHAR u011B
ENCODING 283
SWIDTH 1332 0
DWIDTH 16 0
BBX 16 28 0 -8
BITMAP
0000
0000
0000
0000
3CF0
3CF0
0FC0
0FC0
0000
0000
3FF0
3FF0
F03C
F03C
FFFC
FFFC
F000
F000
F000
F000
F03C
F03C
3FF0
3FF0
0000
0000
0000
0000
ENDCHAR
STARTCHAR u012F
ENCODING 303
SWIDTH 1332 0
DWIDTH 16 0
BBX 16 28 0 -8
BITMAP
0000
0000
0000
0000
03C0
03C0
03C0
03C0
0000
0000
0FC0
0FC0
03C0
03C0
03C0
03C0
03C0
03C0
03C0
03C0
03C0
03C0
0FF0
0FF0
0F00
0F00
03FC
03FC
ENDCHAR
STARTCHAR u00FA
ENCODING 250
SWIDTH 1332 0
DWIDTH 16 0
BBX 16 28 0 -8
BITMAP
0000
0000
03C0
03C0
0F00
0F00
3C00
3C00
0000
0000
F0F0
F0F0
F0F0
F0F0
F0F0
F0F0
F0F0
F0F0
F0F0
F0F0
F0F0
F0F0
3F3C
3F3C
0000
0000
0000
0000
ENDCHAR
STARTCHAR u00C0
ENCODING 192
SWIDTH 1332 0
DWIDTH 16 0
BBX 16 28 0 -8
BITMAP
0F00
0F00
03C0
03C0
0000
0000
0300
0300
0FC0
0FC0
3CF0
3CF0
F03C
F03C
F03C
F03C
FFFC
FFFC
F03C
F03C
F03C
F03C
F03C
F03C
0000
0000
0000
0000
ENDCHAR
STARTCHAR u003B
ENCODING 59
SWIDTH 1332 0
DWIDTH 16 0
BBX 16 28 0 -8
BITMAP
0000
0000
0000
0000
0000
0000
0000
0000
03C0
03C0
03C0
03C0
0000
0000
0000
0000
0000
0000
03C0
03C0
03C0
03C0
0F00
0F00
0000
0000
0000
0000
ENDCHAR
STARTCHAR u00D7
ENCODING 215
SWIDTH 1332 0
DWIDTH 16 0
BBX 16 28 0 -8
BITMAP
0000
0000
0000
0000
0000
0000
0000
0000
0000
0000
0000
0000
3C3C
3C3C
0FF0
0FF0
03C0
03C0
0FF0
0FF0
3C3C
3C3C
0000
0000
0000
0000
0000
0000
ENDCHAR
STARTCHAR u0116
ENCODING 278
SWIDTH 1332 0
DWIDTH 16 0
BBX 16 28 0 -8
BITMAP
03C0
03C0
03C0
03C0
0000
0000
FFFC
FFFC
3C3C
3C3C
3C0C
3C0C
3CC0
3CC0
3FC0
3FC0
3CC0
3CC0
3C0C
3C0C
3C3C
3C3C
FFFC
FFFC
0000
0000
0000
0000
ENDCHAR
STARTCHAR u010F
ENCODING 271
SWIDTH 1332 0
DWIDTH 16 0
BBX 16 28 0 -8
BITMAP
0000
0000
F3C0
F3C0
3FF0
3FF0
0CF0
0CF0
00F0
00F0
0FF0
0FF0
3CF0
3CF0
F0F0
F0F0
F0F0
F0F0
F0F0
F0F0
F0F0
F0F0
3F3C
3F3C
0000
0000
0000
0000
ENDCHAR
STARTCHAR u25BC
ENCODING 9660
SWIDTH 1332 0
DWIDTH 16 0
BBX 16 28 0 -8
BITMAP
0000
0000
0000
0000
0000
0000
0000
0000
FFFC
FFFC
FFFC
FFFC
3FF0
3FF0
3FF0
3FF0
0FC0
0FC0
0FC0
0FC0
0300
0300
0000
0000
0000
0000
0000
0000
ENDCHAR
STARTCHAR u0035
ENCODING 53
SWIDTH 1332 0
DWIDTH 16 0
BBX 16 28 0 -8
BITMAP
0000
0000
0000
0000
FFFC
FFFC
F000
F000
F000
F000
F000
F000
FFF0
FFF0
003C
003C
003C
003C
003C
003C
F03C
F03C
3FF0
3FF0
0000
0000
0000
0000
ENDCHAR
STARTCHAR u00F5
ENCODING 245
SWIDTH 1332 0
DWIDTH 16 0
BBX 16 28 0 -8
BITMAP
0000
0000
0000
0000
3F3C
3F3C
F3F0
F3F0
0000
0000
3FF0
3FF0
F03C
F03C
F03C
F03C
F03C
F03C
F03C
F03C
F03C
F03C
3FF0
3FF0
0000
0000
0000
0000
ENDCHAR
STARTCHAR u010B
ENCODING 267
SWIDTH 1332 0
DWIDTH 16 0
BBX 16 28 0 -8
BITMAP
0000
0000
0000
0000
03C0
03C0
03C0
03C0
0000
0000
3FF0
3FF0
F03C
F03C
F000
F000
F000
F000
F000
F000
F03C
F03C
3FF0
3FF0
0000
0000
0000
0000
ENDCHAR
STARTCHAR u0162
ENCODING 354
SWIDTH 1332 0
DWIDTH 16 0
BBX 16 28 0 -8
BITMAP
0000
0000
0000
0000
3FFC
3FFC
3FFC
3FFC
33CC
33CC
03C0
03C0
03C0
03C0
03C0
03C0
03C0
03C0
03C0
03C0
03C0
03C0
0FF0
0FF0
00F0
00F0
0FC0
0FC0
ENDCHAR
STARTCHAR u00DB
ENCODING 219
SWIDTH 1332 0
DWIDTH 16 0
BBX 16 28 0 -8
BITMAP
0FC0
0FC0
3CF0
3CF0
0000
0000
F03C
F03C
F03C
F03C
F03C
F03C
F03C
F03C
F03C
F03C
F03C
F03C
F03C
F03C
F03C
F03C
3FF0
3FF0
0000
0000
0000
0000
ENDCHAR
STARTCHAR u013E
ENCODING 318
SWIDTH 1332 0
DWIDTH 16 0
BBX 16 28 0 -8
BITMAP
0000
0000
03FC
03FC
FCF0
FCF0
3C00
3C00
3C00
3C00
3C00
3C00
3C00
3C00
3C00
3C00
3C00
3C00
3C00
3C00
3C00
3C00
FF00
FF00
0000
0000
0000
0000
ENDCHAR
STARTCHAR u0101
ENCODING 257
SWIDTH 1332 0
DWIDTH 16 0
BBX 16 28 0 -8
BITMAP
0000
0000
0000
0000
0000
0000
3FF0
3FF0
0000
0000
3FC0
3FC0
00F0
00F0
3FF0
3FF0
F0F0
F0F0
F0F0
F0F0
F0F0
F0F0
3F3C
3F3C
0000
0000
0000
0000
ENDCHAR
STARTCHAR u0069
ENCODING 105
SWIDTH 1332 0
DWIDTH 16 0
BBX 16 28 0 -8
BITMAP
0000
0000
0000
0000
03C0
03C0
03C0
03C0
0000
0000
0FC0
0FC0
03C0
03C0
03C0
03C0
03C0
03C0
03C0
03C0
03C0
03C0
0FF0
0FF0
0000
0000
0000
0000
ENDCHAR
STARTCHAR u0055
ENCODING 85
SWIDTH 1332 0
DWIDTH 16 0
BBX 16 28 0 -8
BITMAP
0000
0000
0000
0000
F03C
F03C
F03C
F03C
F03C
F03C
F03C
F03C
F03C
F03C
F03C
F03C
F03C
F03C
F03C
F03C
F03C
F03C
3FF0
3FF0
0000
0000
0000
0000
ENDCHAR
STARTCHAR u00F8
ENCODING 248
SWIDTH 1332 0
DWIDTH 16 0
BBX 16 28 0 -8
BITMAP
0000
0000
0000
0000
0000
0000
0000
0000
0030
0030
3FF0
3FF0
F0FC
F0FC
F0FC
F0FC
F33C
F33C
FC3C
FC3C
FC3C
FC3C
3FF0
3FF0
3000
3000
0000
0000
ENDCHAR
STARTCHAR u014C
ENCODING 332
SWIDTH 1332 0
DWIDTH 16 0
BBX 16 28 0 -8
BITMAP
3FF0
3FF0
0000
0000
3FF0
3FF0
F03C
F03C
F03C
F03C
F03C
F03C
F03C
F03C
F03C
F03C
F03C
F03C
F03C
F03C
F03C
F03C
3FF0
3FF0
0000
0000
0000
0000
ENDCHAR
STARTCHAR u006F
ENCODING 111
SWIDTH 1332 0
DWIDTH 16 0
BBX 16 28 0 -8
BITMAP
0000
0000
0000
0000
0000
0000
0000
0000
0000
0000
3FF0
3FF0
F03C
F03C
F03C
F03C
F03C
F03C
F03C
F03C
F03C
F03C
3FF0
3FF0
0000
0000
0000
0000
ENDCHAR
STARTCHAR u0026
ENCODING 38
SWIDTH 1332 0
DWIDTH 16 0
BBX 16 28 0 -8
BITMAP
0000
0000
0000
0000
0FC0
0FC0
3CF0
3CF0
3CF0
3CF0
0FC0
0FC0
3F3C
3F3C
F3F0
F3F0
F0F0
F0F0
F0F0
F0F0
F0F0
F0F0
3F3C
3F3C
0000
0000
0000
0000
ENDCHAR
STARTCHAR u0164
ENCODING 356
SWIDTH 1332 0
DWIDTH 16 0
BBX 16 28 0 -8
BITMAP
3C3C
3C3C
0FF0
0FF0
03C0
03C0
3FFC
3FFC
3FFC
3FFC
33CC
33CC
03C0
03C0
03C0
03C0
03C0
03C0
03C0
03C0
03C0
03C0
0FF0
0FF0
0000
0000
0000
0000
ENDCHAR
STARTCHAR u0022
ENCODING 34
SWIDTH 1332 0
DWIDTH 16 0
BBX 16 28 0 -8
BITMAP
0000
0000
F03C
F03C
F03C
F03C
F03C
F03C
3030
3030
0000
0000
0000
0000
0000
0000
0000
0000
0000
0000
0000
0000
0000
0000
0000
0000
0000
0000
ENDCHAR
STARTCHAR u2319
ENCODING 8985
SWIDTH 1332 0
DWIDTH 16 0
BBX 16 28 0 -8
BITMAP
0000
0000
0000
0000
0000
0000
0000
0000
0000
0000
0000
0000
F000
F000
F000
F000
F000
F000
FFFC
FFFC
0000
0000
0000
0000
0000
0000
0000
0000
ENDCHAR
STARTCHAR u00A4
ENCODING 164
SWIDTH 1332 0
DWIDTH 16 0
BBX 16 28 0 -8
BITMAP
0000
0000
0000
0000
0000
0000
0000
0000
0000
0000
F03C
F03C
3FF0
3FF0
F03C
F03C
F03C
F03C
F03C
F03C
3FF0
3FF0
F03C
F03C
0000
0000
0000
0000
ENDCHAR
STARTCHAR u00C4
ENCODING 196
SWIDTH 1332 0
DWIDTH 16 0
BBX 16 28 0 -8
BITMAP
0000
0000
F03C
F03C
0000
0000
0300
0300
0FC0
0FC0
3CF0
3CF0
F03C
F03C
F03C
F03C
FFFC
FFFC
F03C
F03C
F03C
F03C
F03C
F03C
0000
0000
0000
0000
ENDCHAR
STARTCHAR u00F2
ENCODING 242
SWIDTH 1332 0
DWIDTH 16 0
BBX 16 28 0 -8
BITMAP
0000
0000
3C00
3C00
0F00
0F00
03C0
03C0
0000
0000
3FF0
3FF0
F03C
F03C
F03C
F03C
F03C
F03C
F03C
F03C
F03C
F03C
3FF0
3FF0
0000
0000
0000
0000
ENDCHAR
ENDFONT
